<?xml version="1.0" encoding="UTF-8"?>
<svg xmlns="http://www.w3.org/2000/svg" width="2080" height="6159" viewBox="0 0 2080 6159">
<rect width="2080" height="6159" fill="white"/>

<line x1="469.3" y1="2934.0" x2="248.0" y2="2768.0" stroke="black" stroke-width="1.8"/>
<line x1="454.9" y1="2934.0" x2="255.1" y2="2817.4" stroke="black" stroke-width="1.8"/>
<line x1="428.8" y1="2934.0" x2="266.2" y2="2866.2" stroke="black" stroke-width="1.8"/>
<line x1="380.0" y1="2937.0" x2="284.6" y2="2913.1" stroke="black" stroke-width="1.8"/>
<line x1="380.0" y1="2960.3" x2="309.4" y2="2954.4" stroke="black" stroke-width="1.8"/>
<line x1="380.0" y1="2983.7" x2="309.4" y2="2989.6" stroke="black" stroke-width="1.8"/>
<line x1="380.0" y1="3007.0" x2="284.6" y2="3030.9" stroke="black" stroke-width="1.8"/>
<line x1="428.8" y1="3010.0" x2="266.2" y2="3077.8" stroke="black" stroke-width="1.8"/>
<line x1="454.9" y1="3010.0" x2="255.1" y2="3126.6" stroke="black" stroke-width="1.8"/>
<line x1="469.3" y1="3010.0" x2="248.0" y2="3176.0" stroke="black" stroke-width="1.8"/>
<line x1="487.4" y1="1334.0" x2="238.5" y2="1043.6" stroke="black" stroke-width="1.8"/>
<line x1="482.0" y1="1334.0" x2="241.4" y2="1093.4" stroke="black" stroke-width="1.8"/>
<line x1="474.4" y1="1334.0" x2="245.4" y2="1143.2" stroke="black" stroke-width="1.8"/>
<line x1="463.0" y1="1334.0" x2="251.2" y2="1192.8" stroke="black" stroke-width="1.8"/>
<line x1="444.0" y1="1334.0" x2="259.9" y2="1242.0" stroke="black" stroke-width="1.8"/>
<line x1="406.0" y1="1334.0" x2="274.2" y2="1290.1" stroke="black" stroke-width="1.8"/>
<line x1="380.0" y1="1348.7" x2="297.1" y2="1334.9" stroke="black" stroke-width="1.8"/>
<line x1="380.0" y1="1372.0" x2="315.0" y2="1372.0" stroke="black" stroke-width="1.8"/>
<line x1="380.0" y1="1395.3" x2="297.1" y2="1409.1" stroke="black" stroke-width="1.8"/>
<line x1="406.0" y1="1410.0" x2="274.2" y2="1453.9" stroke="black" stroke-width="1.8"/>
<line x1="444.0" y1="1410.0" x2="259.9" y2="1502.0" stroke="black" stroke-width="1.8"/>
<line x1="463.0" y1="1410.0" x2="251.2" y2="1551.2" stroke="black" stroke-width="1.8"/>
<line x1="474.4" y1="1410.0" x2="245.4" y2="1600.8" stroke="black" stroke-width="1.8"/>
<line x1="482.0" y1="1410.0" x2="241.4" y2="1650.6" stroke="black" stroke-width="1.8"/>
<line x1="487.4" y1="1410.0" x2="238.5" y2="1700.4" stroke="black" stroke-width="1.8"/>
<line x1="1434.0" y1="1334.0" x2="1565.8" y2="1290.1" stroke="black" stroke-width="1.8"/>
<line x1="1460.0" y1="1348.7" x2="1542.9" y2="1334.9" stroke="black" stroke-width="1.8"/>
<line x1="1460.0" y1="1372.0" x2="1525.0" y2="1372.0" stroke="black" stroke-width="1.8"/>
<line x1="1460.0" y1="1395.3" x2="1542.9" y2="1409.1" stroke="black" stroke-width="1.8"/>
<line x1="1434.0" y1="1410.0" x2="1565.8" y2="1453.9" stroke="black" stroke-width="1.8"/>
<line x1="1345.3" y1="2934.0" x2="1605.5" y2="2543.7" stroke="black" stroke-width="1.8"/>
<line x1="1348.5" y1="2934.0" x2="1603.7" y2="2593.7" stroke="black" stroke-width="1.8"/>
<line x1="1352.6" y1="2934.0" x2="1601.5" y2="2643.6" stroke="black" stroke-width="1.8"/>
<line x1="1358.0" y1="2934.0" x2="1598.6" y2="2693.4" stroke="black" stroke-width="1.8"/>
<line x1="1365.6" y1="2934.0" x2="1594.6" y2="2743.2" stroke="black" stroke-width="1.8"/>
<line x1="1377.0" y1="2934.0" x2="1588.8" y2="2792.8" stroke="black" stroke-width="1.8"/>
<line x1="1396.0" y1="2934.0" x2="1580.1" y2="2842.0" stroke="black" stroke-width="1.8"/>
<line x1="1434.0" y1="2934.0" x2="1565.8" y2="2890.1" stroke="black" stroke-width="1.8"/>
<line x1="1460.0" y1="2948.7" x2="1542.9" y2="2934.9" stroke="black" stroke-width="1.8"/>
<line x1="1460.0" y1="2972.0" x2="1525.0" y2="2972.0" stroke="black" stroke-width="1.8"/>
<line x1="1460.0" y1="2995.3" x2="1542.9" y2="3009.1" stroke="black" stroke-width="1.8"/>
<line x1="1434.0" y1="3010.0" x2="1565.8" y2="3053.9" stroke="black" stroke-width="1.8"/>
<line x1="1396.0" y1="3010.0" x2="1580.1" y2="3102.0" stroke="black" stroke-width="1.8"/>
<line x1="1377.0" y1="3010.0" x2="1588.8" y2="3151.2" stroke="black" stroke-width="1.8"/>
<line x1="1365.6" y1="3010.0" x2="1594.6" y2="3200.8" stroke="black" stroke-width="1.8"/>
<line x1="1358.0" y1="3010.0" x2="1598.6" y2="3250.6" stroke="black" stroke-width="1.8"/>
<line x1="1352.6" y1="3010.0" x2="1601.5" y2="3300.4" stroke="black" stroke-width="1.8"/>
<line x1="1348.5" y1="3010.0" x2="1603.7" y2="3350.3" stroke="black" stroke-width="1.8"/>
<line x1="1345.3" y1="3010.0" x2="1605.5" y2="3400.3" stroke="black" stroke-width="1.8"/>
<line x1="454.9" y1="4334.0" x2="255.1" y2="4217.4" stroke="black" stroke-width="1.8"/>
<line x1="428.8" y1="4334.0" x2="266.2" y2="4266.2" stroke="black" stroke-width="1.8"/>
<line x1="380.0" y1="4337.0" x2="284.6" y2="4313.1" stroke="black" stroke-width="1.8"/>
<line x1="380.0" y1="4360.3" x2="309.4" y2="4354.4" stroke="black" stroke-width="1.8"/>
<line x1="380.0" y1="4383.7" x2="309.4" y2="4389.6" stroke="black" stroke-width="1.8"/>
<line x1="380.0" y1="4407.0" x2="284.6" y2="4430.9" stroke="black" stroke-width="1.8"/>
<line x1="428.8" y1="4410.0" x2="266.2" y2="4477.8" stroke="black" stroke-width="1.8"/>
<line x1="454.9" y1="4410.0" x2="255.1" y2="4526.6" stroke="black" stroke-width="1.8"/>
<line x1="1361.5" y1="4334.0" x2="1596.7" y2="4118.3" stroke="black" stroke-width="1.8"/>
<line x1="1370.7" y1="4334.0" x2="1592.0" y2="4168.0" stroke="black" stroke-width="1.8"/>
<line x1="1385.1" y1="4334.0" x2="1584.9" y2="4217.4" stroke="black" stroke-width="1.8"/>
<line x1="1411.2" y1="4334.0" x2="1573.8" y2="4266.2" stroke="black" stroke-width="1.8"/>
<line x1="1460.0" y1="4337.0" x2="1555.4" y2="4313.1" stroke="black" stroke-width="1.8"/>
<line x1="1460.0" y1="4360.3" x2="1530.6" y2="4354.4" stroke="black" stroke-width="1.8"/>
<line x1="1460.0" y1="4383.7" x2="1530.6" y2="4389.6" stroke="black" stroke-width="1.8"/>
<line x1="1460.0" y1="4407.0" x2="1555.4" y2="4430.9" stroke="black" stroke-width="1.8"/>
<line x1="1411.2" y1="4410.0" x2="1573.8" y2="4477.8" stroke="black" stroke-width="1.8"/>
<line x1="1385.1" y1="4410.0" x2="1584.9" y2="4526.6" stroke="black" stroke-width="1.8"/>
<line x1="1370.7" y1="4410.0" x2="1592.0" y2="4576.0" stroke="black" stroke-width="1.8"/>
<line x1="1361.5" y1="4410.0" x2="1596.7" y2="4625.7" stroke="black" stroke-width="1.8"/>
<line x1="977.0" y1="5534.0" x2="1188.8" y2="5392.8" stroke="black" stroke-width="1.8"/>
<line x1="996.0" y1="5534.0" x2="1180.1" y2="5442.0" stroke="black" stroke-width="1.8"/>
<line x1="1034.0" y1="5534.0" x2="1165.8" y2="5490.1" stroke="black" stroke-width="1.8"/>
<line x1="1060.0" y1="5548.7" x2="1142.9" y2="5534.9" stroke="black" stroke-width="1.8"/>
<line x1="1060.0" y1="5572.0" x2="1125.0" y2="5572.0" stroke="black" stroke-width="1.8"/>
<line x1="1060.0" y1="5595.3" x2="1142.9" y2="5609.1" stroke="black" stroke-width="1.8"/>
<line x1="1034.0" y1="5610.0" x2="1165.8" y2="5653.9" stroke="black" stroke-width="1.8"/>
<line x1="996.0" y1="5610.0" x2="1180.1" y2="5702.0" stroke="black" stroke-width="1.8"/>
<line x1="977.0" y1="5610.0" x2="1188.8" y2="5751.2" stroke="black" stroke-width="1.8"/>
<line x1="428.8" y1="234.0" x2="266.2" y2="166.2" stroke="black" stroke-width="1.8"/>
<line x1="380.0" y1="237.0" x2="284.6" y2="213.1" stroke="black" stroke-width="1.8"/>
<line x1="380.0" y1="260.3" x2="309.4" y2="254.4" stroke="black" stroke-width="1.8"/>
<line x1="380.0" y1="283.7" x2="309.4" y2="289.6" stroke="black" stroke-width="1.8"/>
<line x1="380.0" y1="307.0" x2="284.6" y2="330.9" stroke="black" stroke-width="1.8"/>
<line x1="428.8" y1="310.0" x2="266.2" y2="377.8" stroke="black" stroke-width="1.8"/>
<line x1="524.8" y1="1410.0" x2="614.4" y2="2127.6" stroke="black" stroke-width="1.8"/>
<text x="551.7" y="1771.0" text-anchor="middle" dominant-baseline="middle" font-family="WenQuanYi Zen Hei, Noto Sans SC, sans-serif" font-size="30px" font-weight="bold" fill="black" >1</text>
<line x1="524.8" y1="2934.0" x2="614.4" y2="2216.4" stroke="black" stroke-width="1.8"/>
<text x="587.5" y="2577.5" text-anchor="middle" dominant-baseline="middle" font-family="WenQuanYi Zen Hei, Noto Sans SC, sans-serif" font-size="30px" font-weight="bold" fill="black" >1</text>
<line x1="660.0" y1="2972.0" x2="870.0" y2="2972.0" stroke="black" stroke-width="1.8"/>
<text x="765.0" y="2990.0" text-anchor="middle" dominant-baseline="middle" font-family="WenQuanYi Zen Hei, Noto Sans SC, sans-serif" font-size="30px" font-weight="bold" fill="black" >1</text>
<line x1="1180.0" y1="2972.0" x2="970.0" y2="2972.0" stroke="black" stroke-width="1.8"/>
<text x="1075.0" y="2954.0" text-anchor="middle" dominant-baseline="middle" font-family="WenQuanYi Zen Hei, Noto Sans SC, sans-serif" font-size="30px" font-weight="bold" fill="black" >n</text>
<line x1="1315.2" y1="1410.0" x2="1225.6" y2="2127.6" stroke="black" stroke-width="1.8"/>
<text x="1252.5" y="1766.5" text-anchor="middle" dominant-baseline="middle" font-family="WenQuanYi Zen Hei, Noto Sans SC, sans-serif" font-size="30px" font-weight="bold" fill="black" >1</text>
<line x1="1315.2" y1="2934.0" x2="1225.6" y2="2216.4" stroke="black" stroke-width="1.8"/>
<text x="1288.3" y="2573.0" text-anchor="middle" dominant-baseline="middle" font-family="WenQuanYi Zen Hei, Noto Sans SC, sans-serif" font-size="30px" font-weight="bold" fill="black" >n</text>
<line x1="1300.7" y1="1334.0" x2="1276.9" y2="1287.1" stroke="black" stroke-width="1.8"/>
<path d="M1292.8 1271.2 Q1540.0 1274.0 1413.0 1334.0" fill="none" stroke="black" stroke-width="1.8"/>
<text x="1260.0" y="1186.0" text-anchor="middle" dominant-baseline="middle" font-family="WenQuanYi Zen Hei, Noto Sans SC, sans-serif" font-size="30px" font-weight="bold" fill="black" >n</text>
<line x1="1298.3" y1="3010.0" x2="938.2" y2="3640.2" stroke="black" stroke-width="1.8"/>
<text x="1102.6" y="3316.2" text-anchor="middle" dominant-baseline="middle" font-family="WenQuanYi Zen Hei, Noto Sans SC, sans-serif" font-size="30px" font-weight="bold" fill="black" >1</text>
<line x1="541.7" y1="4334.0" x2="901.8" y2="3703.8" stroke="black" stroke-width="1.8"/>
<text x="737.4" y="4027.8" text-anchor="middle" dominant-baseline="middle" font-family="WenQuanYi Zen Hei, Noto Sans SC, sans-serif" font-size="30px" font-weight="bold" fill="black" >n</text>
<line x1="525.4" y1="3010.0" x2="613.8" y2="3628.2" stroke="black" stroke-width="1.8"/>
<text x="551.8" y="3321.7" text-anchor="middle" dominant-baseline="middle" font-family="WenQuanYi Zen Hei, Noto Sans SC, sans-serif" font-size="30px" font-weight="bold" fill="black" >1</text>
<line x1="525.4" y1="4334.0" x2="613.8" y2="3715.8" stroke="black" stroke-width="1.8"/>
<text x="587.4" y="4027.4" text-anchor="middle" dominant-baseline="middle" font-family="WenQuanYi Zen Hei, Noto Sans SC, sans-serif" font-size="30px" font-weight="bold" fill="black" >n</text>
<line x1="660.0" y1="4372.0" x2="870.0" y2="4372.0" stroke="black" stroke-width="1.8"/>
<text x="765.0" y="4390.0" text-anchor="middle" dominant-baseline="middle" font-family="WenQuanYi Zen Hei, Noto Sans SC, sans-serif" font-size="30px" font-weight="bold" fill="black" >1</text>
<line x1="1180.0" y1="4372.0" x2="970.0" y2="4372.0" stroke="black" stroke-width="1.8"/>
<text x="1075.0" y="4354.0" text-anchor="middle" dominant-baseline="middle" font-family="WenQuanYi Zen Hei, Noto Sans SC, sans-serif" font-size="30px" font-weight="bold" fill="black" >1</text>
<polyline points="660.0,2972.0 702.0,2972.0 702.0,3552.0" fill="none" stroke="black" stroke-width="1.8"/>
<line x1="702.0" y1="3552.0" x2="710.0" y2="3552.0" stroke="black" stroke-width="1.8"/>
<text x="682.0" y="3262.0" text-anchor="middle" dominant-baseline="middle" font-family="WenQuanYi Zen Hei, Noto Sans SC, sans-serif" font-size="30px" font-weight="bold" fill="black" >1</text>
<line x1="810.0" y1="3552.0" x2="818.0" y2="3552.0" stroke="black" stroke-width="1.8"/>
<polyline points="818.0,3552.0 818.0,4372.0 1180.0,4372.0" fill="none" stroke="black" stroke-width="1.8"/>
<text x="838.0" y="3962.0" text-anchor="middle" dominant-baseline="middle" font-family="WenQuanYi Zen Hei, Noto Sans SC, sans-serif" font-size="30px" font-weight="bold" fill="black" >n</text>
<polyline points="660.0,2972.0 702.0,2972.0 702.0,3672.0" fill="none" stroke="black" stroke-width="1.8"/>
<line x1="702.0" y1="3672.0" x2="710.0" y2="3672.0" stroke="black" stroke-width="1.8"/>
<text x="682.0" y="3322.0" text-anchor="middle" dominant-baseline="middle" font-family="WenQuanYi Zen Hei, Noto Sans SC, sans-serif" font-size="30px" font-weight="bold" fill="black" >1</text>
<line x1="810.0" y1="3672.0" x2="818.0" y2="3672.0" stroke="black" stroke-width="1.8"/>
<polyline points="818.0,3672.0 818.0,4372.0 1180.0,4372.0" fill="none" stroke="black" stroke-width="1.8"/>
<text x="838.0" y="4022.0" text-anchor="middle" dominant-baseline="middle" font-family="WenQuanYi Zen Hei, Noto Sans SC, sans-serif" font-size="30px" font-weight="bold" fill="black" >n</text>
<line x1="1314.6" y1="3010.0" x2="1226.2" y2="3628.2" stroke="black" stroke-width="1.8"/>
<text x="1252.6" y="3316.6" text-anchor="middle" dominant-baseline="middle" font-family="WenQuanYi Zen Hei, Noto Sans SC, sans-serif" font-size="30px" font-weight="bold" fill="black" >1</text>
<line x1="1314.6" y1="4334.0" x2="1226.2" y2="3715.8" stroke="black" stroke-width="1.8"/>
<text x="1288.2" y="4022.3" text-anchor="middle" dominant-baseline="middle" font-family="WenQuanYi Zen Hei, Noto Sans SC, sans-serif" font-size="30px" font-weight="bold" fill="black" >n</text>
<line x1="1301.0" y1="4410.0" x2="1036.7" y2="4938.7" stroke="black" stroke-width="1.8"/>
<text x="1152.7" y="4666.3" text-anchor="middle" dominant-baseline="middle" font-family="WenQuanYi Zen Hei, Noto Sans SC, sans-serif" font-size="30px" font-weight="bold" fill="black" >1</text>
<line x1="926.3" y1="5534.0" x2="1012.9" y2="5014.9" stroke="black" stroke-width="1.8"/>
<text x="987.4" y="5277.4" text-anchor="middle" dominant-baseline="middle" font-family="WenQuanYi Zen Hei, Noto Sans SC, sans-serif" font-size="30px" font-weight="bold" fill="black" >n</text>
<polyline points="660.0,2972.0 702.0,2972.0 702.0,4172.0" fill="none" stroke="black" stroke-width="1.8"/>
<line x1="702.0" y1="4172.0" x2="710.0" y2="4172.0" stroke="black" stroke-width="1.8"/>
<text x="682.0" y="3572.0" text-anchor="middle" dominant-baseline="middle" font-family="WenQuanYi Zen Hei, Noto Sans SC, sans-serif" font-size="30px" font-weight="bold" fill="black" >1</text>
<line x1="810.0" y1="4172.0" x2="818.0" y2="4172.0" stroke="black" stroke-width="1.8"/>
<polyline points="818.0,4172.0 818.0,5572.0 780.0,5572.0" fill="none" stroke="black" stroke-width="1.8"/>
<text x="838.0" y="4872.0" text-anchor="middle" dominant-baseline="middle" font-family="WenQuanYi Zen Hei, Noto Sans SC, sans-serif" font-size="30px" font-weight="bold" fill="black" >n</text>
<polyline points="660.0,2972.0 702.0,2972.0 702.0,4302.0" fill="none" stroke="black" stroke-width="1.8"/>
<line x1="702.0" y1="4302.0" x2="710.0" y2="4302.0" stroke="black" stroke-width="1.8"/>
<text x="682.0" y="3637.0" text-anchor="middle" dominant-baseline="middle" font-family="WenQuanYi Zen Hei, Noto Sans SC, sans-serif" font-size="30px" font-weight="bold" fill="black" >1</text>
<line x1="810.0" y1="4302.0" x2="818.0" y2="4302.0" stroke="black" stroke-width="1.8"/>
<polyline points="818.0,4302.0 818.0,5572.0 780.0,5572.0" fill="none" stroke="black" stroke-width="1.8"/>
<text x="838.0" y="4937.0" text-anchor="middle" dominant-baseline="middle" font-family="WenQuanYi Zen Hei, Noto Sans SC, sans-serif" font-size="30px" font-weight="bold" fill="black" >n</text>
<ellipse cx="220.0" cy="2747.0" rx="95" ry="22" fill="white" stroke="black" stroke-width="2.7"/>
<text x="220.0" y="2747.0" text-anchor="middle" dominant-baseline="middle" font-family="WenQuanYi Zen Hei, Noto Sans SC, sans-serif" font-size="30px" fill="black" text-decoration="underline">id</text>
<ellipse cx="220.0" cy="2797.0" rx="95" ry="22" fill="white" stroke="black" stroke-width="2.2"/>
<text x="220.0" y="2797.0" text-anchor="middle" dominant-baseline="middle" font-family="WenQuanYi Zen Hei, Noto Sans SC, sans-serif" font-size="30px" fill="black" >username</text>
<ellipse cx="220.0" cy="2847.0" rx="95" ry="22" fill="white" stroke="black" stroke-width="2.2"/>
<text x="220.0" y="2847.0" text-anchor="middle" dominant-baseline="middle" font-family="WenQuanYi Zen Hei, Noto Sans SC, sans-serif" font-size="30px" fill="black" >password_hash</text>
<ellipse cx="220.0" cy="2897.0" rx="95" ry="22" fill="white" stroke="black" stroke-width="2.2"/>
<text x="220.0" y="2897.0" text-anchor="middle" dominant-baseline="middle" font-family="WenQuanYi Zen Hei, Noto Sans SC, sans-serif" font-size="30px" fill="black" >phone</text>
<ellipse cx="220.0" cy="2947.0" rx="95" ry="22" fill="white" stroke="black" stroke-width="2.2"/>
<text x="220.0" y="2947.0" text-anchor="middle" dominant-baseline="middle" font-family="WenQuanYi Zen Hei, Noto Sans SC, sans-serif" font-size="30px" fill="black" >email</text>
<ellipse cx="220.0" cy="2997.0" rx="95" ry="22" fill="white" stroke="black" stroke-width="2.2"/>
<text x="220.0" y="2997.0" text-anchor="middle" dominant-baseline="middle" font-family="WenQuanYi Zen Hei, Noto Sans SC, sans-serif" font-size="30px" fill="black" >role_type</text>
<ellipse cx="220.0" cy="3047.0" rx="95" ry="22" fill="white" stroke="black" stroke-width="2.2"/>
<text x="220.0" y="3047.0" text-anchor="middle" dominant-baseline="middle" font-family="WenQuanYi Zen Hei, Noto Sans SC, sans-serif" font-size="30px" fill="black" >status</text>
<ellipse cx="220.0" cy="3097.0" rx="95" ry="22" fill="white" stroke="black" stroke-width="2.2"/>
<text x="220.0" y="3097.0" text-anchor="middle" dominant-baseline="middle" font-family="WenQuanYi Zen Hei, Noto Sans SC, sans-serif" font-size="30px" fill="black" >deleted</text>
<ellipse cx="220.0" cy="3147.0" rx="95" ry="22" fill="white" stroke="black" stroke-width="2.2"/>
<text x="220.0" y="3147.0" text-anchor="middle" dominant-baseline="middle" font-family="WenQuanYi Zen Hei, Noto Sans SC, sans-serif" font-size="30px" fill="black" >create_time</text>
<ellipse cx="220.0" cy="3197.0" rx="95" ry="22" fill="white" stroke="black" stroke-width="2.2"/>
<text x="220.0" y="3197.0" text-anchor="middle" dominant-baseline="middle" font-family="WenQuanYi Zen Hei, Noto Sans SC, sans-serif" font-size="30px" fill="black" >update_time</text>
<ellipse cx="220.0" cy="1022.0" rx="95" ry="22" fill="white" stroke="black" stroke-width="2.7"/>
<text x="220.0" y="1022.0" text-anchor="middle" dominant-baseline="middle" font-family="WenQuanYi Zen Hei, Noto Sans SC, sans-serif" font-size="30px" fill="black" text-decoration="underline">id</text>
<ellipse cx="220.0" cy="1072.0" rx="95" ry="22" fill="white" stroke="black" stroke-width="2.2"/>
<text x="220.0" y="1072.0" text-anchor="middle" dominant-baseline="middle" font-family="WenQuanYi Zen Hei, Noto Sans SC, sans-serif" font-size="30px" fill="black" >user_id</text>
<ellipse cx="220.0" cy="1122.0" rx="95" ry="22" fill="white" stroke="black" stroke-width="2.2"/>
<text x="220.0" y="1122.0" text-anchor="middle" dominant-baseline="middle" font-family="WenQuanYi Zen Hei, Noto Sans SC, sans-serif" font-size="30px" fill="black" >real_name</text>
<ellipse cx="220.0" cy="1172.0" rx="95" ry="22" fill="white" stroke="black" stroke-width="2.2"/>
<text x="220.0" y="1172.0" text-anchor="middle" dominant-baseline="middle" font-family="WenQuanYi Zen Hei, Noto Sans SC, sans-serif" font-size="30px" fill="black" >id_card_hash</text>
<ellipse cx="220.0" cy="1222.0" rx="95" ry="22" fill="white" stroke="black" stroke-width="2.2"/>
<text x="220.0" y="1222.0" text-anchor="middle" dominant-baseline="middle" font-family="WenQuanYi Zen Hei, Noto Sans SC, sans-serif" font-size="30px" fill="black" >id_card_image</text>
<ellipse cx="220.0" cy="1272.0" rx="95" ry="22" fill="white" stroke="black" stroke-width="2.2"/>
<text x="220.0" y="1272.0" text-anchor="middle" dominant-baseline="middle" font-family="WenQuanYi Zen Hei, Noto Sans SC, sans-serif" font-size="30px" fill="black" >gender</text>
<ellipse cx="220.0" cy="1322.0" rx="95" ry="22" fill="white" stroke="black" stroke-width="2.2"/>
<text x="220.0" y="1322.0" text-anchor="middle" dominant-baseline="middle" font-family="WenQuanYi Zen Hei, Noto Sans SC, sans-serif" font-size="30px" fill="black" >university</text>
<ellipse cx="220.0" cy="1372.0" rx="95" ry="22" fill="white" stroke="black" stroke-width="2.2"/>
<text x="220.0" y="1372.0" text-anchor="middle" dominant-baseline="middle" font-family="WenQuanYi Zen Hei, Noto Sans SC, sans-serif" font-size="30px" fill="black" >major</text>
<ellipse cx="220.0" cy="1422.0" rx="95" ry="22" fill="white" stroke="black" stroke-width="2.2"/>
<text x="220.0" y="1422.0" text-anchor="middle" dominant-baseline="middle" font-family="WenQuanYi Zen Hei, Noto Sans SC, sans-serif" font-size="30px" fill="black" >grade</text>
<ellipse cx="220.0" cy="1472.0" rx="95" ry="22" fill="white" stroke="black" stroke-width="2.2"/>
<text x="220.0" y="1472.0" text-anchor="middle" dominant-baseline="middle" font-family="WenQuanYi Zen Hei, Noto Sans SC, sans-serif" font-size="30px" fill="black" >balance</text>
<ellipse cx="220.0" cy="1522.0" rx="95" ry="22" fill="white" stroke="black" stroke-width="2.2"/>
<text x="220.0" y="1522.0" text-anchor="middle" dominant-baseline="middle" font-family="WenQuanYi Zen Hei, Noto Sans SC, sans-serif" font-size="30px" fill="black" >credit_score</text>
<ellipse cx="220.0" cy="1572.0" rx="95" ry="22" fill="white" stroke="black" stroke-width="2.2"/>
<text x="220.0" y="1572.0" text-anchor="middle" dominant-baseline="middle" font-family="WenQuanYi Zen Hei, Noto Sans SC, sans-serif" font-size="30px" fill="black" >avatar_url</text>
<ellipse cx="220.0" cy="1622.0" rx="95" ry="22" fill="white" stroke="black" stroke-width="2.2"/>
<text x="220.0" y="1622.0" text-anchor="middle" dominant-baseline="middle" font-family="WenQuanYi Zen Hei, Noto Sans SC, sans-serif" font-size="30px" fill="black" >verified_status</text>
<ellipse cx="220.0" cy="1672.0" rx="95" ry="22" fill="white" stroke="black" stroke-width="2.2"/>
<text x="220.0" y="1672.0" text-anchor="middle" dominant-baseline="middle" font-family="WenQuanYi Zen Hei, Noto Sans SC, sans-serif" font-size="30px" fill="black" >create_time</text>
<ellipse cx="220.0" cy="1722.0" rx="95" ry="22" fill="white" stroke="black" stroke-width="2.2"/>
<text x="220.0" y="1722.0" text-anchor="middle" dominant-baseline="middle" font-family="WenQuanYi Zen Hei, Noto Sans SC, sans-serif" font-size="30px" fill="black" >update_time</text>
<ellipse cx="1620.0" cy="1272.0" rx="95" ry="22" fill="white" stroke="black" stroke-width="2.7"/>
<text x="1620.0" y="1272.0" text-anchor="middle" dominant-baseline="middle" font-family="WenQuanYi Zen Hei, Noto Sans SC, sans-serif" font-size="30px" fill="black" text-decoration="underline">id</text>
<ellipse cx="1620.0" cy="1322.0" rx="95" ry="22" fill="white" stroke="black" stroke-width="2.2"/>
<text x="1620.0" y="1322.0" text-anchor="middle" dominant-baseline="middle" font-family="WenQuanYi Zen Hei, Noto Sans SC, sans-serif" font-size="30px" fill="black" >name</text>
<ellipse cx="1620.0" cy="1372.0" rx="95" ry="22" fill="white" stroke="black" stroke-width="2.2"/>
<text x="1620.0" y="1372.0" text-anchor="middle" dominant-baseline="middle" font-family="WenQuanYi Zen Hei, Noto Sans SC, sans-serif" font-size="30px" fill="black" >parent_id</text>
<ellipse cx="1620.0" cy="1422.0" rx="95" ry="22" fill="white" stroke="black" stroke-width="2.2"/>
<text x="1620.0" y="1422.0" text-anchor="middle" dominant-baseline="middle" font-family="WenQuanYi Zen Hei, Noto Sans SC, sans-serif" font-size="30px" fill="black" >sort_order</text>
<ellipse cx="1620.0" cy="1472.0" rx="95" ry="22" fill="white" stroke="black" stroke-width="2.2"/>
<text x="1620.0" y="1472.0" text-anchor="middle" dominant-baseline="middle" font-family="WenQuanYi Zen Hei, Noto Sans SC, sans-serif" font-size="30px" fill="black" >status</text>
<ellipse cx="1620.0" cy="2522.0" rx="95" ry="22" fill="white" stroke="black" stroke-width="2.7"/>
<text x="1620.0" y="2522.0" text-anchor="middle" dominant-baseline="middle" font-family="WenQuanYi Zen Hei, Noto Sans SC, sans-serif" font-size="30px" fill="black" text-decoration="underline">id</text>
<ellipse cx="1620.0" cy="2572.0" rx="95" ry="22" fill="white" stroke="black" stroke-width="2.2"/>
<text x="1620.0" y="2572.0" text-anchor="middle" dominant-baseline="middle" font-family="WenQuanYi Zen Hei, Noto Sans SC, sans-serif" font-size="30px" fill="black" >publisher_id</text>
<ellipse cx="1620.0" cy="2622.0" rx="95" ry="22" fill="white" stroke="black" stroke-width="2.2"/>
<text x="1620.0" y="2622.0" text-anchor="middle" dominant-baseline="middle" font-family="WenQuanYi Zen Hei, Noto Sans SC, sans-serif" font-size="30px" fill="black" >category_id</text>
<ellipse cx="1620.0" cy="2672.0" rx="95" ry="22" fill="white" stroke="black" stroke-width="2.2"/>
<text x="1620.0" y="2672.0" text-anchor="middle" dominant-baseline="middle" font-family="WenQuanYi Zen Hei, Noto Sans SC, sans-serif" font-size="30px" fill="black" >title</text>
<ellipse cx="1620.0" cy="2722.0" rx="95" ry="22" fill="white" stroke="black" stroke-width="2.2"/>
<text x="1620.0" y="2722.0" text-anchor="middle" dominant-baseline="middle" font-family="WenQuanYi Zen Hei, Noto Sans SC, sans-serif" font-size="30px" fill="black" >description</text>
<ellipse cx="1620.0" cy="2772.0" rx="95" ry="22" fill="white" stroke="black" stroke-width="2.2"/>
<text x="1620.0" y="2772.0" text-anchor="middle" dominant-baseline="middle" font-family="WenQuanYi Zen Hei, Noto Sans SC, sans-serif" font-size="30px" fill="black" >location</text>
<ellipse cx="1620.0" cy="2822.0" rx="95" ry="22" fill="white" stroke="black" stroke-width="2.2"/>
<text x="1620.0" y="2822.0" text-anchor="middle" dominant-baseline="middle" font-family="WenQuanYi Zen Hei, Noto Sans SC, sans-serif" font-size="30px" fill="black" >salary_type</text>
<ellipse cx="1620.0" cy="2872.0" rx="95" ry="22" fill="white" stroke="black" stroke-width="2.2"/>
<text x="1620.0" y="2872.0" text-anchor="middle" dominant-baseline="middle" font-family="WenQuanYi Zen Hei, Noto Sans SC, sans-serif" font-size="30px" fill="black" >salary_amount</text>
<ellipse cx="1620.0" cy="2922.0" rx="95" ry="22" fill="white" stroke="black" stroke-width="2.2"/>
<text x="1620.0" y="2922.0" text-anchor="middle" dominant-baseline="middle" font-family="WenQuanYi Zen Hei, Noto Sans SC, sans-serif" font-size="30px" fill="black" >start_time</text>
<ellipse cx="1620.0" cy="2972.0" rx="95" ry="22" fill="white" stroke="black" stroke-width="2.2"/>
<text x="1620.0" y="2972.0" text-anchor="middle" dominant-baseline="middle" font-family="WenQuanYi Zen Hei, Noto Sans SC, sans-serif" font-size="30px" fill="black" >end_time</text>
<ellipse cx="1620.0" cy="3022.0" rx="95" ry="22" fill="white" stroke="black" stroke-width="2.2"/>
<text x="1620.0" y="3022.0" text-anchor="middle" dominant-baseline="middle" font-family="WenQuanYi Zen Hei, Noto Sans SC, sans-serif" font-size="30px" fill="black" >recruit_num</text>
<ellipse cx="1620.0" cy="3072.0" rx="95" ry="22" fill="white" stroke="black" stroke-width="2.2"/>
<text x="1620.0" y="3072.0" text-anchor="middle" dominant-baseline="middle" font-family="WenQuanYi Zen Hei, Noto Sans SC, sans-serif" font-size="30px" fill="black" >hired_num</text>
<ellipse cx="1620.0" cy="3122.0" rx="95" ry="22" fill="white" stroke="black" stroke-width="2.2"/>
<text x="1620.0" y="3122.0" text-anchor="middle" dominant-baseline="middle" font-family="WenQuanYi Zen Hei, Noto Sans SC, sans-serif" font-size="30px" fill="black" >status</text>
<ellipse cx="1620.0" cy="3172.0" rx="95" ry="22" fill="white" stroke="black" stroke-width="2.2"/>
<text x="1620.0" y="3172.0" text-anchor="middle" dominant-baseline="middle" font-family="WenQuanYi Zen Hei, Noto Sans SC, sans-serif" font-size="30px" fill="black" >audit_status</text>
<ellipse cx="1620.0" cy="3222.0" rx="95" ry="22" fill="white" stroke="black" stroke-width="2.2"/>
<text x="1620.0" y="3222.0" text-anchor="middle" dominant-baseline="middle" font-family="WenQuanYi Zen Hei, Noto Sans SC, sans-serif" font-size="30px" fill="black" >audit_remark</text>
<ellipse cx="1620.0" cy="3272.0" rx="95" ry="22" fill="white" stroke="black" stroke-width="2.2"/>
<text x="1620.0" y="3272.0" text-anchor="middle" dominant-baseline="middle" font-family="WenQuanYi Zen Hei, Noto Sans SC, sans-serif" font-size="30px" fill="black" >version</text>
<ellipse cx="1620.0" cy="3322.0" rx="95" ry="22" fill="white" stroke="black" stroke-width="2.2"/>
<text x="1620.0" y="3322.0" text-anchor="middle" dominant-baseline="middle" font-family="WenQuanYi Zen Hei, Noto Sans SC, sans-serif" font-size="30px" fill="black" >deleted</text>
<ellipse cx="1620.0" cy="3372.0" rx="95" ry="22" fill="white" stroke="black" stroke-width="2.2"/>
<text x="1620.0" y="3372.0" text-anchor="middle" dominant-baseline="middle" font-family="WenQuanYi Zen Hei, Noto Sans SC, sans-serif" font-size="30px" fill="black" >create_time</text>
<ellipse cx="1620.0" cy="3422.0" rx="95" ry="22" fill="white" stroke="black" stroke-width="2.2"/>
<text x="1620.0" y="3422.0" text-anchor="middle" dominant-baseline="middle" font-family="WenQuanYi Zen Hei, Noto Sans SC, sans-serif" font-size="30px" fill="black" >update_time</text>
<ellipse cx="220.0" cy="4197.0" rx="95" ry="22" fill="white" stroke="black" stroke-width="2.7"/>
<text x="220.0" y="4197.0" text-anchor="middle" dominant-baseline="middle" font-family="WenQuanYi Zen Hei, Noto Sans SC, sans-serif" font-size="30px" fill="black" text-decoration="underline">id</text>
<ellipse cx="220.0" cy="4247.0" rx="95" ry="22" fill="white" stroke="black" stroke-width="2.2"/>
<text x="220.0" y="4247.0" text-anchor="middle" dominant-baseline="middle" font-family="WenQuanYi Zen Hei, Noto Sans SC, sans-serif" font-size="30px" fill="black" >job_id</text>
<ellipse cx="220.0" cy="4297.0" rx="95" ry="22" fill="white" stroke="black" stroke-width="2.2"/>
<text x="220.0" y="4297.0" text-anchor="middle" dominant-baseline="middle" font-family="WenQuanYi Zen Hei, Noto Sans SC, sans-serif" font-size="30px" fill="black" >applicant_id</text>
<ellipse cx="220.0" cy="4347.0" rx="95" ry="22" fill="white" stroke="black" stroke-width="2.2"/>
<text x="220.0" y="4347.0" text-anchor="middle" dominant-baseline="middle" font-family="WenQuanYi Zen Hei, Noto Sans SC, sans-serif" font-size="30px" fill="black" >resume_url</text>
<ellipse cx="220.0" cy="4397.0" rx="95" ry="22" fill="white" stroke="black" stroke-width="2.2"/>
<text x="220.0" y="4397.0" text-anchor="middle" dominant-baseline="middle" font-family="WenQuanYi Zen Hei, Noto Sans SC, sans-serif" font-size="30px" fill="black" >status</text>
<ellipse cx="220.0" cy="4447.0" rx="95" ry="22" fill="white" stroke="black" stroke-width="2.2"/>
<text x="220.0" y="4447.0" text-anchor="middle" dominant-baseline="middle" font-family="WenQuanYi Zen Hei, Noto Sans SC, sans-serif" font-size="30px" fill="black" >apply_time</text>
<ellipse cx="220.0" cy="4497.0" rx="95" ry="22" fill="white" stroke="black" stroke-width="2.2"/>
<text x="220.0" y="4497.0" text-anchor="middle" dominant-baseline="middle" font-family="WenQuanYi Zen Hei, Noto Sans SC, sans-serif" font-size="30px" fill="black" >review_time</text>
<ellipse cx="220.0" cy="4547.0" rx="95" ry="22" fill="white" stroke="black" stroke-width="2.2"/>
<text x="220.0" y="4547.0" text-anchor="middle" dominant-baseline="middle" font-family="WenQuanYi Zen Hei, Noto Sans SC, sans-serif" font-size="30px" fill="black" >reject_reason</text>
<ellipse cx="1620.0" cy="4097.0" rx="95" ry="22" fill="white" stroke="black" stroke-width="2.7"/>
<text x="1620.0" y="4097.0" text-anchor="middle" dominant-baseline="middle" font-family="WenQuanYi Zen Hei, Noto Sans SC, sans-serif" font-size="30px" fill="black" text-decoration="underline">id</text>
<ellipse cx="1620.0" cy="4147.0" rx="95" ry="22" fill="white" stroke="black" stroke-width="2.2"/>
<text x="1620.0" y="4147.0" text-anchor="middle" dominant-baseline="middle" font-family="WenQuanYi Zen Hei, Noto Sans SC, sans-serif" font-size="30px" fill="black" >application_id</text>
<ellipse cx="1620.0" cy="4197.0" rx="95" ry="22" fill="white" stroke="black" stroke-width="2.2"/>
<text x="1620.0" y="4197.0" text-anchor="middle" dominant-baseline="middle" font-family="WenQuanYi Zen Hei, Noto Sans SC, sans-serif" font-size="30px" fill="black" >student_id</text>
<ellipse cx="1620.0" cy="4247.0" rx="95" ry="22" fill="white" stroke="black" stroke-width="2.2"/>
<text x="1620.0" y="4247.0" text-anchor="middle" dominant-baseline="middle" font-family="WenQuanYi Zen Hei, Noto Sans SC, sans-serif" font-size="30px" fill="black" >employer_id</text>
<ellipse cx="1620.0" cy="4297.0" rx="95" ry="22" fill="white" stroke="black" stroke-width="2.2"/>
<text x="1620.0" y="4297.0" text-anchor="middle" dominant-baseline="middle" font-family="WenQuanYi Zen Hei, Noto Sans SC, sans-serif" font-size="30px" fill="black" >job_id</text>
<ellipse cx="1620.0" cy="4347.0" rx="95" ry="22" fill="white" stroke="black" stroke-width="2.2"/>
<text x="1620.0" y="4347.0" text-anchor="middle" dominant-baseline="middle" font-family="WenQuanYi Zen Hei, Noto Sans SC, sans-serif" font-size="30px" fill="black" >amount</text>
<ellipse cx="1620.0" cy="4397.0" rx="95" ry="22" fill="white" stroke="black" stroke-width="2.2"/>
<text x="1620.0" y="4397.0" text-anchor="middle" dominant-baseline="middle" font-family="WenQuanYi Zen Hei, Noto Sans SC, sans-serif" font-size="30px" fill="black" >pay_status</text>
<ellipse cx="1620.0" cy="4447.0" rx="95" ry="22" fill="white" stroke="black" stroke-width="2.2"/>
<text x="1620.0" y="4447.0" text-anchor="middle" dominant-baseline="middle" font-family="WenQuanYi Zen Hei, Noto Sans SC, sans-serif" font-size="30px" fill="black" >settlement_status</text>
<ellipse cx="1620.0" cy="4497.0" rx="95" ry="22" fill="white" stroke="black" stroke-width="2.2"/>
<text x="1620.0" y="4497.0" text-anchor="middle" dominant-baseline="middle" font-family="WenQuanYi Zen Hei, Noto Sans SC, sans-serif" font-size="30px" fill="black" >start_date</text>
<ellipse cx="1620.0" cy="4547.0" rx="95" ry="22" fill="white" stroke="black" stroke-width="2.2"/>
<text x="1620.0" y="4547.0" text-anchor="middle" dominant-baseline="middle" font-family="WenQuanYi Zen Hei, Noto Sans SC, sans-serif" font-size="30px" fill="black" >end_date</text>
<ellipse cx="1620.0" cy="4597.0" rx="95" ry="22" fill="white" stroke="black" stroke-width="2.2"/>
<text x="1620.0" y="4597.0" text-anchor="middle" dominant-baseline="middle" font-family="WenQuanYi Zen Hei, Noto Sans SC, sans-serif" font-size="30px" fill="black" >create_time</text>
<ellipse cx="1620.0" cy="4647.0" rx="95" ry="22" fill="white" stroke="black" stroke-width="2.2"/>
<text x="1620.0" y="4647.0" text-anchor="middle" dominant-baseline="middle" font-family="WenQuanYi Zen Hei, Noto Sans SC, sans-serif" font-size="30px" fill="black" >update_time</text>
<ellipse cx="1220.0" cy="5372.0" rx="95" ry="22" fill="white" stroke="black" stroke-width="2.7"/>
<text x="1220.0" y="5372.0" text-anchor="middle" dominant-baseline="middle" font-family="WenQuanYi Zen Hei, Noto Sans SC, sans-serif" font-size="30px" fill="black" text-decoration="underline">id</text>
<ellipse cx="1220.0" cy="5422.0" rx="95" ry="22" fill="white" stroke="black" stroke-width="2.2"/>
<text x="1220.0" y="5422.0" text-anchor="middle" dominant-baseline="middle" font-family="WenQuanYi Zen Hei, Noto Sans SC, sans-serif" font-size="30px" fill="black" >order_id</text>
<ellipse cx="1220.0" cy="5472.0" rx="95" ry="22" fill="white" stroke="black" stroke-width="2.2"/>
<text x="1220.0" y="5472.0" text-anchor="middle" dominant-baseline="middle" font-family="WenQuanYi Zen Hei, Noto Sans SC, sans-serif" font-size="30px" fill="black" >reviewer_id</text>
<ellipse cx="1220.0" cy="5522.0" rx="95" ry="22" fill="white" stroke="black" stroke-width="2.2"/>
<text x="1220.0" y="5522.0" text-anchor="middle" dominant-baseline="middle" font-family="WenQuanYi Zen Hei, Noto Sans SC, sans-serif" font-size="30px" fill="black" >target_id</text>
<ellipse cx="1220.0" cy="5572.0" rx="95" ry="22" fill="white" stroke="black" stroke-width="2.2"/>
<text x="1220.0" y="5572.0" text-anchor="middle" dominant-baseline="middle" font-family="WenQuanYi Zen Hei, Noto Sans SC, sans-serif" font-size="30px" fill="black" >rating</text>
<ellipse cx="1220.0" cy="5622.0" rx="95" ry="22" fill="white" stroke="black" stroke-width="2.2"/>
<text x="1220.0" y="5622.0" text-anchor="middle" dominant-baseline="middle" font-family="WenQuanYi Zen Hei, Noto Sans SC, sans-serif" font-size="30px" fill="black" >comment</text>
<ellipse cx="1220.0" cy="5672.0" rx="95" ry="22" fill="white" stroke="black" stroke-width="2.2"/>
<text x="1220.0" y="5672.0" text-anchor="middle" dominant-baseline="middle" font-family="WenQuanYi Zen Hei, Noto Sans SC, sans-serif" font-size="30px" fill="black" >type</text>
<ellipse cx="1220.0" cy="5722.0" rx="95" ry="22" fill="white" stroke="black" stroke-width="2.2"/>
<text x="1220.0" y="5722.0" text-anchor="middle" dominant-baseline="middle" font-family="WenQuanYi Zen Hei, Noto Sans SC, sans-serif" font-size="30px" fill="black" >create_time</text>
<ellipse cx="1220.0" cy="5772.0" rx="95" ry="22" fill="white" stroke="black" stroke-width="2.2"/>
<text x="1220.0" y="5772.0" text-anchor="middle" dominant-baseline="middle" font-family="WenQuanYi Zen Hei, Noto Sans SC, sans-serif" font-size="30px" fill="black" >update_time</text>
<ellipse cx="220.0" cy="147.0" rx="95" ry="22" fill="white" stroke="black" stroke-width="2.7"/>
<text x="220.0" y="147.0" text-anchor="middle" dominant-baseline="middle" font-family="WenQuanYi Zen Hei, Noto Sans SC, sans-serif" font-size="30px" fill="black" text-decoration="underline">id</text>
<ellipse cx="220.0" cy="197.0" rx="95" ry="22" fill="white" stroke="black" stroke-width="2.2"/>
<text x="220.0" y="197.0" text-anchor="middle" dominant-baseline="middle" font-family="WenQuanYi Zen Hei, Noto Sans SC, sans-serif" font-size="30px" fill="black" >dict_type</text>
<ellipse cx="220.0" cy="247.0" rx="95" ry="22" fill="white" stroke="black" stroke-width="2.2"/>
<text x="220.0" y="247.0" text-anchor="middle" dominant-baseline="middle" font-family="WenQuanYi Zen Hei, Noto Sans SC, sans-serif" font-size="30px" fill="black" >dict_code</text>
<ellipse cx="220.0" cy="297.0" rx="95" ry="22" fill="white" stroke="black" stroke-width="2.2"/>
<text x="220.0" y="297.0" text-anchor="middle" dominant-baseline="middle" font-family="WenQuanYi Zen Hei, Noto Sans SC, sans-serif" font-size="30px" fill="black" >dict_label</text>
<ellipse cx="220.0" cy="347.0" rx="95" ry="22" fill="white" stroke="black" stroke-width="2.2"/>
<text x="220.0" y="347.0" text-anchor="middle" dominant-baseline="middle" font-family="WenQuanYi Zen Hei, Noto Sans SC, sans-serif" font-size="30px" fill="black" >sort_order</text>
<ellipse cx="220.0" cy="397.0" rx="95" ry="22" fill="white" stroke="black" stroke-width="2.2"/>
<text x="220.0" y="397.0" text-anchor="middle" dominant-baseline="middle" font-family="WenQuanYi Zen Hei, Noto Sans SC, sans-serif" font-size="30px" fill="black" >status</text>
<rect x="380.0" y="2934.0" width="280" height="76" fill="white" stroke="black" stroke-width="2.2" rx="3"/>
<text x="520.0" y="2962.0" text-anchor="middle" dominant-baseline="middle" font-family="WenQuanYi Zen Hei, Noto Sans SC, sans-serif" font-size="30px" font-weight="bold" fill="black" >sys_user</text>
<text x="520.0" y="2986.0" text-anchor="middle" dominant-baseline="middle" font-family="WenQuanYi Zen Hei, Noto Sans SC, sans-serif" font-size="26px" font-weight="normal" fill="black" >(系统用户)</text>
<rect x="380.0" y="1334.0" width="280" height="76" fill="white" stroke="black" stroke-width="2.2" rx="3"/>
<text x="520.0" y="1362.0" text-anchor="middle" dominant-baseline="middle" font-family="WenQuanYi Zen Hei, Noto Sans SC, sans-serif" font-size="30px" font-weight="bold" fill="black" >user_profile</text>
<text x="520.0" y="1386.0" text-anchor="middle" dominant-baseline="middle" font-family="WenQuanYi Zen Hei, Noto Sans SC, sans-serif" font-size="26px" font-weight="normal" fill="black" >(用户详情)</text>
<rect x="1180.0" y="1334.0" width="280" height="76" fill="white" stroke="black" stroke-width="2.2" rx="3"/>
<text x="1320.0" y="1362.0" text-anchor="middle" dominant-baseline="middle" font-family="WenQuanYi Zen Hei, Noto Sans SC, sans-serif" font-size="30px" font-weight="bold" fill="black" >job_category</text>
<text x="1320.0" y="1386.0" text-anchor="middle" dominant-baseline="middle" font-family="WenQuanYi Zen Hei, Noto Sans SC, sans-serif" font-size="26px" font-weight="normal" fill="black" >(岗位分类)</text>
<rect x="1180.0" y="2934.0" width="280" height="76" fill="white" stroke="black" stroke-width="2.2" rx="3"/>
<text x="1320.0" y="2962.0" text-anchor="middle" dominant-baseline="middle" font-family="WenQuanYi Zen Hei, Noto Sans SC, sans-serif" font-size="30px" font-weight="bold" fill="black" >job_post</text>
<text x="1320.0" y="2986.0" text-anchor="middle" dominant-baseline="middle" font-family="WenQuanYi Zen Hei, Noto Sans SC, sans-serif" font-size="26px" font-weight="normal" fill="black" >(岗位发布)</text>
<rect x="380.0" y="4334.0" width="280" height="76" fill="white" stroke="black" stroke-width="2.2" rx="3"/>
<text x="520.0" y="4362.0" text-anchor="middle" dominant-baseline="middle" font-family="WenQuanYi Zen Hei, Noto Sans SC, sans-serif" font-size="30px" font-weight="bold" fill="black" >application</text>
<text x="520.0" y="4386.0" text-anchor="middle" dominant-baseline="middle" font-family="WenQuanYi Zen Hei, Noto Sans SC, sans-serif" font-size="26px" font-weight="normal" fill="black" >(报名申请)</text>
<rect x="1180.0" y="4334.0" width="280" height="76" fill="white" stroke="black" stroke-width="2.2" rx="3"/>
<text x="1320.0" y="4362.0" text-anchor="middle" dominant-baseline="middle" font-family="WenQuanYi Zen Hei, Noto Sans SC, sans-serif" font-size="30px" font-weight="bold" fill="black" >order_record</text>
<text x="1320.0" y="4386.0" text-anchor="middle" dominant-baseline="middle" font-family="WenQuanYi Zen Hei, Noto Sans SC, sans-serif" font-size="26px" font-weight="normal" fill="black" >(订单记录)</text>
<rect x="780.0" y="5534.0" width="280" height="76" fill="white" stroke="black" stroke-width="2.2" rx="3"/>
<text x="920.0" y="5562.0" text-anchor="middle" dominant-baseline="middle" font-family="WenQuanYi Zen Hei, Noto Sans SC, sans-serif" font-size="30px" font-weight="bold" fill="black" >review</text>
<text x="920.0" y="5586.0" text-anchor="middle" dominant-baseline="middle" font-family="WenQuanYi Zen Hei, Noto Sans SC, sans-serif" font-size="26px" font-weight="normal" fill="black" >(评价)</text>
<rect x="380.0" y="234.0" width="280" height="76" fill="white" stroke="black" stroke-width="2.2" rx="3"/>
<text x="520.0" y="262.0" text-anchor="middle" dominant-baseline="middle" font-family="WenQuanYi Zen Hei, Noto Sans SC, sans-serif" font-size="30px" font-weight="bold" fill="black" >sys_dict</text>
<text x="520.0" y="286.0" text-anchor="middle" dominant-baseline="middle" font-family="WenQuanYi Zen Hei, Noto Sans SC, sans-serif" font-size="26px" font-weight="normal" fill="black" >(系统字典)</text>
<polygon points="620.0,2122.0 670.0,2172.0 620.0,2222.0 570.0,2172.0" fill="white" stroke="black" stroke-width="2.2"/>
<text x="620.0" y="2172.0" text-anchor="middle" dominant-baseline="middle" font-family="WenQuanYi Zen Hei, Noto Sans SC, sans-serif" font-size="28px" font-weight="normal" fill="black" >拥有</text>
<polygon points="920.0,2922.0 970.0,2972.0 920.0,3022.0 870.0,2972.0" fill="white" stroke="black" stroke-width="2.2"/>
<text x="920.0" y="2972.0" text-anchor="middle" dominant-baseline="middle" font-family="WenQuanYi Zen Hei, Noto Sans SC, sans-serif" font-size="28px" font-weight="normal" fill="black" >发布</text>
<polygon points="1220.0,2122.0 1270.0,2172.0 1220.0,2222.0 1170.0,2172.0" fill="white" stroke="black" stroke-width="2.2"/>
<text x="1220.0" y="2172.0" text-anchor="middle" dominant-baseline="middle" font-family="WenQuanYi Zen Hei, Noto Sans SC, sans-serif" font-size="28px" font-weight="normal" fill="black" >归属</text>
<polygon points="1260.0,1204.0 1310.0,1254.0 1260.0,1304.0 1210.0,1254.0" fill="white" stroke="black" stroke-width="2.2"/>
<text x="1260.0" y="1254.0" text-anchor="middle" dominant-baseline="middle" font-family="WenQuanYi Zen Hei, Noto Sans SC, sans-serif" font-size="28px" font-weight="normal" fill="black" >父子</text>
<polygon points="920.0,3622.0 970.0,3672.0 920.0,3722.0 870.0,3672.0" fill="white" stroke="black" stroke-width="2.2"/>
<text x="920.0" y="3672.0" text-anchor="middle" dominant-baseline="middle" font-family="WenQuanYi Zen Hei, Noto Sans SC, sans-serif" font-size="28px" font-weight="normal" fill="black" >收到</text>
<polygon points="620.0,3622.0 670.0,3672.0 620.0,3722.0 570.0,3672.0" fill="white" stroke="black" stroke-width="2.2"/>
<text x="620.0" y="3672.0" text-anchor="middle" dominant-baseline="middle" font-family="WenQuanYi Zen Hei, Noto Sans SC, sans-serif" font-size="28px" font-weight="normal" fill="black" >申请</text>
<polygon points="920.0,4322.0 970.0,4372.0 920.0,4422.0 870.0,4372.0" fill="white" stroke="black" stroke-width="2.2"/>
<text x="920.0" y="4372.0" text-anchor="middle" dominant-baseline="middle" font-family="WenQuanYi Zen Hei, Noto Sans SC, sans-serif" font-size="28px" font-weight="normal" fill="black" >生成</text>
<polygon points="1220.0,3622.0 1270.0,3672.0 1220.0,3722.0 1170.0,3672.0" fill="white" stroke="black" stroke-width="2.2"/>
<text x="1220.0" y="3672.0" text-anchor="middle" dominant-baseline="middle" font-family="WenQuanYi Zen Hei, Noto Sans SC, sans-serif" font-size="28px" font-weight="normal" fill="black" >关联</text>
<polygon points="1020.0,4922.0 1070.0,4972.0 1020.0,5022.0 970.0,4972.0" fill="white" stroke="black" stroke-width="2.2"/>
<text x="1020.0" y="4972.0" text-anchor="middle" dominant-baseline="middle" font-family="WenQuanYi Zen Hei, Noto Sans SC, sans-serif" font-size="28px" font-weight="normal" fill="black" >产生</text>
<polygon points="760.0,3502.0 810.0,3552.0 760.0,3602.0 710.0,3552.0" fill="white" stroke="black" stroke-width="2.2"/>
<text x="760.0" y="3542.0" text-anchor="middle" dominant-baseline="middle" font-family="WenQuanYi Zen Hei, Noto Sans SC, sans-serif" font-size="26px" font-weight="normal" fill="black" >学生</text>
<text x="760.0" y="3564.0" text-anchor="middle" dominant-baseline="middle" font-family="WenQuanYi Zen Hei, Noto Sans SC, sans-serif" font-size="26px" font-weight="normal" fill="black" >下单</text>
<polygon points="760.0,3622.0 810.0,3672.0 760.0,3722.0 710.0,3672.0" fill="white" stroke="black" stroke-width="2.2"/>
<text x="760.0" y="3662.0" text-anchor="middle" dominant-baseline="middle" font-family="WenQuanYi Zen Hei, Noto Sans SC, sans-serif" font-size="26px" font-weight="normal" fill="black" >雇主</text>
<text x="760.0" y="3684.0" text-anchor="middle" dominant-baseline="middle" font-family="WenQuanYi Zen Hei, Noto Sans SC, sans-serif" font-size="26px" font-weight="normal" fill="black" >接单</text>
<polygon points="760.0,4122.0 810.0,4172.0 760.0,4222.0 710.0,4172.0" fill="white" stroke="black" stroke-width="2.2"/>
<text x="760.0" y="4172.0" text-anchor="middle" dominant-baseline="middle" font-family="WenQuanYi Zen Hei, Noto Sans SC, sans-serif" font-size="28px" font-weight="normal" fill="black" >评价人</text>
<polygon points="760.0,4252.0 810.0,4302.0 760.0,4352.0 710.0,4302.0" fill="white" stroke="black" stroke-width="2.2"/>
<text x="760.0" y="4292.0" text-anchor="middle" dominant-baseline="middle" font-family="WenQuanYi Zen Hei, Noto Sans SC, sans-serif" font-size="26px" font-weight="normal" fill="black" >被评</text>
<text x="760.0" y="4314.0" text-anchor="middle" dominant-baseline="middle" font-family="WenQuanYi Zen Hei, Noto Sans SC, sans-serif" font-size="26px" font-weight="normal" fill="black" >价人</text>
</svg>