<?xml version="1.0" encoding="UTF-8"?>
<svg xmlns="http://www.w3.org/2000/svg" width="3080" height="7359" viewBox="0 0 3080 7359">
<rect width="3080" height="7359" fill="white"/>

<line x1="469.3" y1="3334.0" x2="248.0" y2="3168.0" stroke="black" stroke-width="1.8"/>
<line x1="454.9" y1="3334.0" x2="255.1" y2="3217.4" stroke="black" stroke-width="1.8"/>
<line x1="428.8" y1="3334.0" x2="266.2" y2="3266.2" stroke="black" stroke-width="1.8"/>
<line x1="380.0" y1="3337.0" x2="284.6" y2="3313.1" stroke="black" stroke-width="1.8"/>
<line x1="380.0" y1="3360.3" x2="309.4" y2="3354.4" stroke="black" stroke-width="1.8"/>
<line x1="380.0" y1="3383.7" x2="309.4" y2="3389.6" stroke="black" stroke-width="1.8"/>
<line x1="380.0" y1="3407.0" x2="284.6" y2="3430.9" stroke="black" stroke-width="1.8"/>
<line x1="428.8" y1="3410.0" x2="266.2" y2="3477.8" stroke="black" stroke-width="1.8"/>
<line x1="454.9" y1="3410.0" x2="255.1" y2="3526.6" stroke="black" stroke-width="1.8"/>
<line x1="469.3" y1="3410.0" x2="248.0" y2="3576.0" stroke="black" stroke-width="1.8"/>
<line x1="487.4" y1="1334.0" x2="238.5" y2="1043.6" stroke="black" stroke-width="1.8"/>
<line x1="482.0" y1="1334.0" x2="241.4" y2="1093.4" stroke="black" stroke-width="1.8"/>
<line x1="474.4" y1="1334.0" x2="245.4" y2="1143.2" stroke="black" stroke-width="1.8"/>
<line x1="463.0" y1="1334.0" x2="251.2" y2="1192.8" stroke="black" stroke-width="1.8"/>
<line x1="444.0" y1="1334.0" x2="259.9" y2="1242.0" stroke="black" stroke-width="1.8"/>
<line x1="406.0" y1="1334.0" x2="274.2" y2="1290.1" stroke="black" stroke-width="1.8"/>
<line x1="380.0" y1="1348.7" x2="297.1" y2="1334.9" stroke="black" stroke-width="1.8"/>
<line x1="380.0" y1="1372.0" x2="315.0" y2="1372.0" stroke="black" stroke-width="1.8"/>
<line x1="380.0" y1="1395.3" x2="297.1" y2="1409.1" stroke="black" stroke-width="1.8"/>
<line x1="406.0" y1="1410.0" x2="274.2" y2="1453.9" stroke="black" stroke-width="1.8"/>
<line x1="444.0" y1="1410.0" x2="259.9" y2="1502.0" stroke="black" stroke-width="1.8"/>
<line x1="463.0" y1="1410.0" x2="251.2" y2="1551.2" stroke="black" stroke-width="1.8"/>
<line x1="474.4" y1="1410.0" x2="245.4" y2="1600.8" stroke="black" stroke-width="1.8"/>
<line x1="482.0" y1="1410.0" x2="241.4" y2="1650.6" stroke="black" stroke-width="1.8"/>
<line x1="487.4" y1="1410.0" x2="238.5" y2="1700.4" stroke="black" stroke-width="1.8"/>
<line x1="2434.0" y1="1334.0" x2="2565.8" y2="1290.1" stroke="black" stroke-width="1.8"/>
<line x1="2460.0" y1="1348.7" x2="2542.9" y2="1334.9" stroke="black" stroke-width="1.8"/>
<line x1="2460.0" y1="1372.0" x2="2525.0" y2="1372.0" stroke="black" stroke-width="1.8"/>
<line x1="2460.0" y1="1395.3" x2="2542.9" y2="1409.1" stroke="black" stroke-width="1.8"/>
<line x1="2434.0" y1="1410.0" x2="2565.8" y2="1453.9" stroke="black" stroke-width="1.8"/>
<line x1="2345.3" y1="3334.0" x2="2605.5" y2="2943.7" stroke="black" stroke-width="1.8"/>
<line x1="2348.5" y1="3334.0" x2="2603.7" y2="2993.7" stroke="black" stroke-width="1.8"/>
<line x1="2352.6" y1="3334.0" x2="2601.5" y2="3043.6" stroke="black" stroke-width="1.8"/>
<line x1="2358.0" y1="3334.0" x2="2598.6" y2="3093.4" stroke="black" stroke-width="1.8"/>
<line x1="2365.6" y1="3334.0" x2="2594.6" y2="3143.2" stroke="black" stroke-width="1.8"/>
<line x1="2377.0" y1="3334.0" x2="2588.8" y2="3192.8" stroke="black" stroke-width="1.8"/>
<line x1="2396.0" y1="3334.0" x2="2580.1" y2="3242.0" stroke="black" stroke-width="1.8"/>
<line x1="2434.0" y1="3334.0" x2="2565.8" y2="3290.1" stroke="black" stroke-width="1.8"/>
<line x1="2460.0" y1="3348.7" x2="2542.9" y2="3334.9" stroke="black" stroke-width="1.8"/>
<line x1="2460.0" y1="3372.0" x2="2525.0" y2="3372.0" stroke="black" stroke-width="1.8"/>
<line x1="2460.0" y1="3395.3" x2="2542.9" y2="3409.1" stroke="black" stroke-width="1.8"/>
<line x1="2434.0" y1="3410.0" x2="2565.8" y2="3453.9" stroke="black" stroke-width="1.8"/>
<line x1="2396.0" y1="3410.0" x2="2580.1" y2="3502.0" stroke="black" stroke-width="1.8"/>
<line x1="2377.0" y1="3410.0" x2="2588.8" y2="3551.2" stroke="black" stroke-width="1.8"/>
<line x1="2365.6" y1="3410.0" x2="2594.6" y2="3600.8" stroke="black" stroke-width="1.8"/>
<line x1="2358.0" y1="3410.0" x2="2598.6" y2="3650.6" stroke="black" stroke-width="1.8"/>
<line x1="2352.6" y1="3410.0" x2="2601.5" y2="3700.4" stroke="black" stroke-width="1.8"/>
<line x1="2348.5" y1="3410.0" x2="2603.7" y2="3750.3" stroke="black" stroke-width="1.8"/>
<line x1="2345.3" y1="3410.0" x2="2605.5" y2="3800.3" stroke="black" stroke-width="1.8"/>
<line x1="454.9" y1="5134.0" x2="255.1" y2="5017.4" stroke="black" stroke-width="1.8"/>
<line x1="428.8" y1="5134.0" x2="266.2" y2="5066.2" stroke="black" stroke-width="1.8"/>
<line x1="380.0" y1="5137.0" x2="284.6" y2="5113.1" stroke="black" stroke-width="1.8"/>
<line x1="380.0" y1="5160.3" x2="309.4" y2="5154.4" stroke="black" stroke-width="1.8"/>
<line x1="380.0" y1="5183.7" x2="309.4" y2="5189.6" stroke="black" stroke-width="1.8"/>
<line x1="380.0" y1="5207.0" x2="284.6" y2="5230.9" stroke="black" stroke-width="1.8"/>
<line x1="428.8" y1="5210.0" x2="266.2" y2="5277.8" stroke="black" stroke-width="1.8"/>
<line x1="454.9" y1="5210.0" x2="255.1" y2="5326.6" stroke="black" stroke-width="1.8"/>
<line x1="2361.5" y1="5134.0" x2="2596.7" y2="4918.3" stroke="black" stroke-width="1.8"/>
<line x1="2370.7" y1="5134.0" x2="2592.0" y2="4968.0" stroke="black" stroke-width="1.8"/>
<line x1="2385.1" y1="5134.0" x2="2584.9" y2="5017.4" stroke="black" stroke-width="1.8"/>
<line x1="2411.2" y1="5134.0" x2="2573.8" y2="5066.2" stroke="black" stroke-width="1.8"/>
<line x1="2460.0" y1="5137.0" x2="2555.4" y2="5113.1" stroke="black" stroke-width="1.8"/>
<line x1="2460.0" y1="5160.3" x2="2530.6" y2="5154.4" stroke="black" stroke-width="1.8"/>
<line x1="2460.0" y1="5183.7" x2="2530.6" y2="5189.6" stroke="black" stroke-width="1.8"/>
<line x1="2460.0" y1="5207.0" x2="2555.4" y2="5230.9" stroke="black" stroke-width="1.8"/>
<line x1="2411.2" y1="5210.0" x2="2573.8" y2="5277.8" stroke="black" stroke-width="1.8"/>
<line x1="2385.1" y1="5210.0" x2="2584.9" y2="5326.6" stroke="black" stroke-width="1.8"/>
<line x1="2370.7" y1="5210.0" x2="2592.0" y2="5376.0" stroke="black" stroke-width="1.8"/>
<line x1="2361.5" y1="5210.0" x2="2596.7" y2="5425.7" stroke="black" stroke-width="1.8"/>
<line x1="1477.0" y1="6734.0" x2="1688.8" y2="6592.8" stroke="black" stroke-width="1.8"/>
<line x1="1496.0" y1="6734.0" x2="1680.1" y2="6642.0" stroke="black" stroke-width="1.8"/>
<line x1="1534.0" y1="6734.0" x2="1665.8" y2="6690.1" stroke="black" stroke-width="1.8"/>
<line x1="1560.0" y1="6748.7" x2="1642.9" y2="6734.9" stroke="black" stroke-width="1.8"/>
<line x1="1560.0" y1="6772.0" x2="1625.0" y2="6772.0" stroke="black" stroke-width="1.8"/>
<line x1="1560.0" y1="6795.3" x2="1642.9" y2="6809.1" stroke="black" stroke-width="1.8"/>
<line x1="1534.0" y1="6810.0" x2="1665.8" y2="6853.9" stroke="black" stroke-width="1.8"/>
<line x1="1496.0" y1="6810.0" x2="1680.1" y2="6902.0" stroke="black" stroke-width="1.8"/>
<line x1="1477.0" y1="6810.0" x2="1688.8" y2="6951.2" stroke="black" stroke-width="1.8"/>
<line x1="428.8" y1="234.0" x2="266.2" y2="166.2" stroke="black" stroke-width="1.8"/>
<line x1="380.0" y1="237.0" x2="284.6" y2="213.1" stroke="black" stroke-width="1.8"/>
<line x1="380.0" y1="260.3" x2="309.4" y2="254.4" stroke="black" stroke-width="1.8"/>
<line x1="380.0" y1="283.7" x2="309.4" y2="289.6" stroke="black" stroke-width="1.8"/>
<line x1="380.0" y1="307.0" x2="284.6" y2="330.9" stroke="black" stroke-width="1.8"/>
<line x1="428.8" y1="310.0" x2="266.2" y2="377.8" stroke="black" stroke-width="1.8"/>
<line x1="527.6" y1="1410.0" x2="711.7" y2="2330.3" stroke="black" stroke-width="1.8"/>
<text x="602.0" y="1873.7" text-anchor="middle" dominant-baseline="middle" font-family="SimHei, Noto Sans SC, sans-serif" font-size="30px" font-weight="bold" fill="black" >1</text>
<line x1="527.6" y1="3334.0" x2="711.7" y2="2413.7" stroke="black" stroke-width="1.8"/>
<text x="637.3" y="2877.4" text-anchor="middle" dominant-baseline="middle" font-family="SimHei, Noto Sans SC, sans-serif" font-size="30px" font-weight="bold" fill="black" >1</text>
<line x1="660.0" y1="3372.0" x2="1370.0" y2="3372.0" stroke="black" stroke-width="1.8"/>
<text x="1015.0" y="3390.0" text-anchor="middle" dominant-baseline="middle" font-family="SimHei, Noto Sans SC, sans-serif" font-size="30px" font-weight="bold" fill="black" >1</text>
<line x1="2180.0" y1="3372.0" x2="1470.0" y2="3372.0" stroke="black" stroke-width="1.8"/>
<text x="1825.0" y="3354.0" text-anchor="middle" dominant-baseline="middle" font-family="SimHei, Noto Sans SC, sans-serif" font-size="30px" font-weight="bold" fill="black" >n</text>
<line x1="2312.4" y1="1410.0" x2="2128.3" y2="2330.3" stroke="black" stroke-width="1.8"/>
<text x="2202.7" y="1866.6" text-anchor="middle" dominant-baseline="middle" font-family="SimHei, Noto Sans SC, sans-serif" font-size="30px" font-weight="bold" fill="black" >1</text>
<line x1="2312.4" y1="3334.0" x2="2128.3" y2="2413.7" stroke="black" stroke-width="1.8"/>
<text x="2238.0" y="2870.3" text-anchor="middle" dominant-baseline="middle" font-family="SimHei, Noto Sans SC, sans-serif" font-size="30px" font-weight="bold" fill="black" >n</text>
<line x1="2296.2" y1="1334.0" x2="2259.2" y2="1274.8" stroke="black" stroke-width="1.8"/>
<path d="M2272.9 1261.1 Q2540.0 1274.0 2413.0 1334.0" fill="none" stroke="black" stroke-width="1.8"/>
<text x="2240.0" y="1176.0" text-anchor="middle" dominant-baseline="middle" font-family="SimHei, Noto Sans SC, sans-serif" font-size="30px" font-weight="bold" fill="black" >n</text>
<line x1="2282.0" y1="3410.0" x2="1445.0" y2="4247.0" stroke="black" stroke-width="1.8"/>
<text x="1850.8" y="3815.8" text-anchor="middle" dominant-baseline="middle" font-family="SimHei, Noto Sans SC, sans-serif" font-size="30px" font-weight="bold" fill="black" >1</text>
<line x1="558.0" y1="5134.0" x2="1395.0" y2="4297.0" stroke="black" stroke-width="1.8"/>
<text x="989.2" y="4728.2" text-anchor="middle" dominant-baseline="middle" font-family="SimHei, Noto Sans SC, sans-serif" font-size="30px" font-weight="bold" fill="black" >n</text>
<line x1="528.4" y1="3410.0" x2="710.9" y2="4231.1" stroke="black" stroke-width="1.8"/>
<text x="602.1" y="3824.5" text-anchor="middle" dominant-baseline="middle" font-family="SimHei, Noto Sans SC, sans-serif" font-size="30px" font-weight="bold" fill="black" >1</text>
<line x1="528.4" y1="5134.0" x2="710.9" y2="4312.9" stroke="black" stroke-width="1.8"/>
<text x="637.2" y="4727.4" text-anchor="middle" dominant-baseline="middle" font-family="SimHei, Noto Sans SC, sans-serif" font-size="30px" font-weight="bold" fill="black" >n</text>
<line x1="660.0" y1="5172.0" x2="1370.0" y2="5172.0" stroke="black" stroke-width="1.8"/>
<text x="1015.0" y="5190.0" text-anchor="middle" dominant-baseline="middle" font-family="SimHei, Noto Sans SC, sans-serif" font-size="30px" font-weight="bold" fill="black" >1</text>
<line x1="2180.0" y1="5172.0" x2="1470.0" y2="5172.0" stroke="black" stroke-width="1.8"/>
<text x="1825.0" y="5154.0" text-anchor="middle" dominant-baseline="middle" font-family="SimHei, Noto Sans SC, sans-serif" font-size="30px" font-weight="bold" fill="black" >1</text>
<polyline points="660.0,3372.0 762.0,3372.0 762.0,4072.0" fill="none" stroke="black" stroke-width="1.8"/>
<line x1="762.0" y1="4072.0" x2="770.0" y2="4072.0" stroke="black" stroke-width="1.8"/>
<text x="742.0" y="3722.0" text-anchor="middle" dominant-baseline="middle" font-family="SimHei, Noto Sans SC, sans-serif" font-size="30px" font-weight="bold" fill="black" >1</text>
<line x1="870.0" y1="4072.0" x2="878.0" y2="4072.0" stroke="black" stroke-width="1.8"/>
<polyline points="878.0,4072.0 878.0,5172.0 2180.0,5172.0" fill="none" stroke="black" stroke-width="1.8"/>
<text x="898.0" y="4622.0" text-anchor="middle" dominant-baseline="middle" font-family="SimHei, Noto Sans SC, sans-serif" font-size="30px" font-weight="bold" fill="black" >n</text>
<polyline points="660.0,3372.0 762.0,3372.0 762.0,4272.0" fill="none" stroke="black" stroke-width="1.8"/>
<line x1="762.0" y1="4272.0" x2="770.0" y2="4272.0" stroke="black" stroke-width="1.8"/>
<text x="742.0" y="3822.0" text-anchor="middle" dominant-baseline="middle" font-family="SimHei, Noto Sans SC, sans-serif" font-size="30px" font-weight="bold" fill="black" >1</text>
<line x1="870.0" y1="4272.0" x2="878.0" y2="4272.0" stroke="black" stroke-width="1.8"/>
<polyline points="878.0,4272.0 878.0,5172.0 2180.0,5172.0" fill="none" stroke="black" stroke-width="1.8"/>
<text x="898.0" y="4722.0" text-anchor="middle" dominant-baseline="middle" font-family="SimHei, Noto Sans SC, sans-serif" font-size="30px" font-weight="bold" fill="black" >n</text>
<line x1="2311.6" y1="3410.0" x2="2129.1" y2="4231.1" stroke="black" stroke-width="1.8"/>
<text x="2202.8" y="3816.6" text-anchor="middle" dominant-baseline="middle" font-family="SimHei, Noto Sans SC, sans-serif" font-size="30px" font-weight="bold" fill="black" >1</text>
<line x1="2311.6" y1="5134.0" x2="2129.1" y2="4312.9" stroke="black" stroke-width="1.8"/>
<text x="2237.9" y="4719.5" text-anchor="middle" dominant-baseline="middle" font-family="SimHei, Noto Sans SC, sans-serif" font-size="30px" font-weight="bold" fill="black" >n</text>
<line x1="2286.8" y1="5210.0" x2="1643.3" y2="5945.3" stroke="black" stroke-width="1.8"/>
<text x="1951.5" y="5565.8" text-anchor="middle" dominant-baseline="middle" font-family="SimHei, Noto Sans SC, sans-serif" font-size="30px" font-weight="bold" fill="black" >1</text>
<line x1="1429.5" y1="6734.0" x2="1610.0" y2="6012.0" stroke="black" stroke-width="1.8"/>
<text x="1537.2" y="6377.4" text-anchor="middle" dominant-baseline="middle" font-family="SimHei, Noto Sans SC, sans-serif" font-size="30px" font-weight="bold" fill="black" >n</text>
<polyline points="660.0,3372.0 762.0,3372.0 762.0,4922.0" fill="none" stroke="black" stroke-width="1.8"/>
<line x1="762.0" y1="4922.0" x2="770.0" y2="4922.0" stroke="black" stroke-width="1.8"/>
<text x="742.0" y="4147.0" text-anchor="middle" dominant-baseline="middle" font-family="SimHei, Noto Sans SC, sans-serif" font-size="30px" font-weight="bold" fill="black" >1</text>
<line x1="870.0" y1="4922.0" x2="878.0" y2="4922.0" stroke="black" stroke-width="1.8"/>
<polyline points="878.0,4922.0 878.0,6772.0 1280.0,6772.0" fill="none" stroke="black" stroke-width="1.8"/>
<text x="898.0" y="5847.0" text-anchor="middle" dominant-baseline="middle" font-family="SimHei, Noto Sans SC, sans-serif" font-size="30px" font-weight="bold" fill="black" >n</text>
<polyline points="660.0,3372.0 762.0,3372.0 762.0,5122.0" fill="none" stroke="black" stroke-width="1.8"/>
<line x1="762.0" y1="5122.0" x2="770.0" y2="5122.0" stroke="black" stroke-width="1.8"/>
<text x="742.0" y="4247.0" text-anchor="middle" dominant-baseline="middle" font-family="SimHei, Noto Sans SC, sans-serif" font-size="30px" font-weight="bold" fill="black" >1</text>
<line x1="870.0" y1="5122.0" x2="878.0" y2="5122.0" stroke="black" stroke-width="1.8"/>
<polyline points="878.0,5122.0 878.0,6772.0 1280.0,6772.0" fill="none" stroke="black" stroke-width="1.8"/>
<text x="898.0" y="5947.0" text-anchor="middle" dominant-baseline="middle" font-family="SimHei, Noto Sans SC, sans-serif" font-size="30px" font-weight="bold" fill="black" >n</text>
<ellipse cx="220.0" cy="3147.0" rx="95" ry="22" fill="white" stroke="black" stroke-width="2.7"/>
<text x="220.0" y="3147.0" text-anchor="middle" dominant-baseline="middle" font-family="SimHei, Noto Sans SC, sans-serif" font-size="30px" fill="black" text-decoration="underline">id</text>
<ellipse cx="220.0" cy="3197.0" rx="95" ry="22" fill="white" stroke="black" stroke-width="2.2"/>
<text x="220.0" y="3197.0" text-anchor="middle" dominant-baseline="middle" font-family="SimHei, Noto Sans SC, sans-serif" font-size="30px" fill="black" >username</text>
<ellipse cx="220.0" cy="3247.0" rx="95" ry="22" fill="white" stroke="black" stroke-width="2.2"/>
<text x="220.0" y="3247.0" text-anchor="middle" dominant-baseline="middle" font-family="SimHei, Noto Sans SC, sans-serif" font-size="30px" fill="black" >password_hash</text>
<ellipse cx="220.0" cy="3297.0" rx="95" ry="22" fill="white" stroke="black" stroke-width="2.2"/>
<text x="220.0" y="3297.0" text-anchor="middle" dominant-baseline="middle" font-family="SimHei, Noto Sans SC, sans-serif" font-size="30px" fill="black" >phone</text>
<ellipse cx="220.0" cy="3347.0" rx="95" ry="22" fill="white" stroke="black" stroke-width="2.2"/>
<text x="220.0" y="3347.0" text-anchor="middle" dominant-baseline="middle" font-family="SimHei, Noto Sans SC, sans-serif" font-size="30px" fill="black" >email</text>
<ellipse cx="220.0" cy="3397.0" rx="95" ry="22" fill="white" stroke="black" stroke-width="2.2"/>
<text x="220.0" y="3397.0" text-anchor="middle" dominant-baseline="middle" font-family="SimHei, Noto Sans SC, sans-serif" font-size="30px" fill="black" >role_type</text>
<ellipse cx="220.0" cy="3447.0" rx="95" ry="22" fill="white" stroke="black" stroke-width="2.2"/>
<text x="220.0" y="3447.0" text-anchor="middle" dominant-baseline="middle" font-family="SimHei, Noto Sans SC, sans-serif" font-size="30px" fill="black" >status</text>
<ellipse cx="220.0" cy="3497.0" rx="95" ry="22" fill="white" stroke="black" stroke-width="2.2"/>
<text x="220.0" y="3497.0" text-anchor="middle" dominant-baseline="middle" font-family="SimHei, Noto Sans SC, sans-serif" font-size="30px" fill="black" >deleted</text>
<ellipse cx="220.0" cy="3547.0" rx="95" ry="22" fill="white" stroke="black" stroke-width="2.2"/>
<text x="220.0" y="3547.0" text-anchor="middle" dominant-baseline="middle" font-family="SimHei, Noto Sans SC, sans-serif" font-size="30px" fill="black" >create_time</text>
<ellipse cx="220.0" cy="3597.0" rx="95" ry="22" fill="white" stroke="black" stroke-width="2.2"/>
<text x="220.0" y="3597.0" text-anchor="middle" dominant-baseline="middle" font-family="SimHei, Noto Sans SC, sans-serif" font-size="30px" fill="black" >update_time</text>
<ellipse cx="220.0" cy="1022.0" rx="95" ry="22" fill="white" stroke="black" stroke-width="2.7"/>
<text x="220.0" y="1022.0" text-anchor="middle" dominant-baseline="middle" font-family="SimHei, Noto Sans SC, sans-serif" font-size="30px" fill="black" text-decoration="underline">id</text>
<ellipse cx="220.0" cy="1072.0" rx="95" ry="22" fill="white" stroke="black" stroke-width="2.2"/>
<text x="220.0" y="1072.0" text-anchor="middle" dominant-baseline="middle" font-family="SimHei, Noto Sans SC, sans-serif" font-size="30px" fill="black" >user_id</text>
<ellipse cx="220.0" cy="1122.0" rx="95" ry="22" fill="white" stroke="black" stroke-width="2.2"/>
<text x="220.0" y="1122.0" text-anchor="middle" dominant-baseline="middle" font-family="SimHei, Noto Sans SC, sans-serif" font-size="30px" fill="black" >real_name</text>
<ellipse cx="220.0" cy="1172.0" rx="95" ry="22" fill="white" stroke="black" stroke-width="2.2"/>
<text x="220.0" y="1172.0" text-anchor="middle" dominant-baseline="middle" font-family="SimHei, Noto Sans SC, sans-serif" font-size="30px" fill="black" >id_card_hash</text>
<ellipse cx="220.0" cy="1222.0" rx="95" ry="22" fill="white" stroke="black" stroke-width="2.2"/>
<text x="220.0" y="1222.0" text-anchor="middle" dominant-baseline="middle" font-family="SimHei, Noto Sans SC, sans-serif" font-size="30px" fill="black" >id_card_image</text>
<ellipse cx="220.0" cy="1272.0" rx="95" ry="22" fill="white" stroke="black" stroke-width="2.2"/>
<text x="220.0" y="1272.0" text-anchor="middle" dominant-baseline="middle" font-family="SimHei, Noto Sans SC, sans-serif" font-size="30px" fill="black" >gender</text>
<ellipse cx="220.0" cy="1322.0" rx="95" ry="22" fill="white" stroke="black" stroke-width="2.2"/>
<text x="220.0" y="1322.0" text-anchor="middle" dominant-baseline="middle" font-family="SimHei, Noto Sans SC, sans-serif" font-size="30px" fill="black" >university</text>
<ellipse cx="220.0" cy="1372.0" rx="95" ry="22" fill="white" stroke="black" stroke-width="2.2"/>
<text x="220.0" y="1372.0" text-anchor="middle" dominant-baseline="middle" font-family="SimHei, Noto Sans SC, sans-serif" font-size="30px" fill="black" >major</text>
<ellipse cx="220.0" cy="1422.0" rx="95" ry="22" fill="white" stroke="black" stroke-width="2.2"/>
<text x="220.0" y="1422.0" text-anchor="middle" dominant-baseline="middle" font-family="SimHei, Noto Sans SC, sans-serif" font-size="30px" fill="black" >grade</text>
<ellipse cx="220.0" cy="1472.0" rx="95" ry="22" fill="white" stroke="black" stroke-width="2.2"/>
<text x="220.0" y="1472.0" text-anchor="middle" dominant-baseline="middle" font-family="SimHei, Noto Sans SC, sans-serif" font-size="30px" fill="black" >balance</text>
<ellipse cx="220.0" cy="1522.0" rx="95" ry="22" fill="white" stroke="black" stroke-width="2.2"/>
<text x="220.0" y="1522.0" text-anchor="middle" dominant-baseline="middle" font-family="SimHei, Noto Sans SC, sans-serif" font-size="30px" fill="black" >credit_score</text>
<ellipse cx="220.0" cy="1572.0" rx="95" ry="22" fill="white" stroke="black" stroke-width="2.2"/>
<text x="220.0" y="1572.0" text-anchor="middle" dominant-baseline="middle" font-family="SimHei, Noto Sans SC, sans-serif" font-size="30px" fill="black" >avatar_url</text>
<ellipse cx="220.0" cy="1622.0" rx="95" ry="22" fill="white" stroke="black" stroke-width="2.2"/>
<text x="220.0" y="1622.0" text-anchor="middle" dominant-baseline="middle" font-family="SimHei, Noto Sans SC, sans-serif" font-size="30px" fill="black" >verified_status</text>
<ellipse cx="220.0" cy="1672.0" rx="95" ry="22" fill="white" stroke="black" stroke-width="2.2"/>
<text x="220.0" y="1672.0" text-anchor="middle" dominant-baseline="middle" font-family="SimHei, Noto Sans SC, sans-serif" font-size="30px" fill="black" >create_time</text>
<ellipse cx="220.0" cy="1722.0" rx="95" ry="22" fill="white" stroke="black" stroke-width="2.2"/>
<text x="220.0" y="1722.0" text-anchor="middle" dominant-baseline="middle" font-family="SimHei, Noto Sans SC, sans-serif" font-size="30px" fill="black" >update_time</text>
<ellipse cx="2620.0" cy="1272.0" rx="95" ry="22" fill="white" stroke="black" stroke-width="2.7"/>
<text x="2620.0" y="1272.0" text-anchor="middle" dominant-baseline="middle" font-family="SimHei, Noto Sans SC, sans-serif" font-size="30px" fill="black" text-decoration="underline">id</text>
<ellipse cx="2620.0" cy="1322.0" rx="95" ry="22" fill="white" stroke="black" stroke-width="2.2"/>
<text x="2620.0" y="1322.0" text-anchor="middle" dominant-baseline="middle" font-family="SimHei, Noto Sans SC, sans-serif" font-size="30px" fill="black" >name</text>
<ellipse cx="2620.0" cy="1372.0" rx="95" ry="22" fill="white" stroke="black" stroke-width="2.2"/>
<text x="2620.0" y="1372.0" text-anchor="middle" dominant-baseline="middle" font-family="SimHei, Noto Sans SC, sans-serif" font-size="30px" fill="black" >parent_id</text>
<ellipse cx="2620.0" cy="1422.0" rx="95" ry="22" fill="white" stroke="black" stroke-width="2.2"/>
<text x="2620.0" y="1422.0" text-anchor="middle" dominant-baseline="middle" font-family="SimHei, Noto Sans SC, sans-serif" font-size="30px" fill="black" >sort_order</text>
<ellipse cx="2620.0" cy="1472.0" rx="95" ry="22" fill="white" stroke="black" stroke-width="2.2"/>
<text x="2620.0" y="1472.0" text-anchor="middle" dominant-baseline="middle" font-family="SimHei, Noto Sans SC, sans-serif" font-size="30px" fill="black" >status</text>
<ellipse cx="2620.0" cy="2922.0" rx="95" ry="22" fill="white" stroke="black" stroke-width="2.7"/>
<text x="2620.0" y="2922.0" text-anchor="middle" dominant-baseline="middle" font-family="SimHei, Noto Sans SC, sans-serif" font-size="30px" fill="black" text-decoration="underline">id</text>
<ellipse cx="2620.0" cy="2972.0" rx="95" ry="22" fill="white" stroke="black" stroke-width="2.2"/>
<text x="2620.0" y="2972.0" text-anchor="middle" dominant-baseline="middle" font-family="SimHei, Noto Sans SC, sans-serif" font-size="30px" fill="black" >publisher_id</text>
<ellipse cx="2620.0" cy="3022.0" rx="95" ry="22" fill="white" stroke="black" stroke-width="2.2"/>
<text x="2620.0" y="3022.0" text-anchor="middle" dominant-baseline="middle" font-family="SimHei, Noto Sans SC, sans-serif" font-size="30px" fill="black" >category_id</text>
<ellipse cx="2620.0" cy="3072.0" rx="95" ry="22" fill="white" stroke="black" stroke-width="2.2"/>
<text x="2620.0" y="3072.0" text-anchor="middle" dominant-baseline="middle" font-family="SimHei, Noto Sans SC, sans-serif" font-size="30px" fill="black" >title</text>
<ellipse cx="2620.0" cy="3122.0" rx="95" ry="22" fill="white" stroke="black" stroke-width="2.2"/>
<text x="2620.0" y="3122.0" text-anchor="middle" dominant-baseline="middle" font-family="SimHei, Noto Sans SC, sans-serif" font-size="30px" fill="black" >description</text>
<ellipse cx="2620.0" cy="3172.0" rx="95" ry="22" fill="white" stroke="black" stroke-width="2.2"/>
<text x="2620.0" y="3172.0" text-anchor="middle" dominant-baseline="middle" font-family="SimHei, Noto Sans SC, sans-serif" font-size="30px" fill="black" >location</text>
<ellipse cx="2620.0" cy="3222.0" rx="95" ry="22" fill="white" stroke="black" stroke-width="2.2"/>
<text x="2620.0" y="3222.0" text-anchor="middle" dominant-baseline="middle" font-family="SimHei, Noto Sans SC, sans-serif" font-size="30px" fill="black" >salary_type</text>
<ellipse cx="2620.0" cy="3272.0" rx="95" ry="22" fill="white" stroke="black" stroke-width="2.2"/>
<text x="2620.0" y="3272.0" text-anchor="middle" dominant-baseline="middle" font-family="SimHei, Noto Sans SC, sans-serif" font-size="30px" fill="black" >salary_amount</text>
<ellipse cx="2620.0" cy="3322.0" rx="95" ry="22" fill="white" stroke="black" stroke-width="2.2"/>
<text x="2620.0" y="3322.0" text-anchor="middle" dominant-baseline="middle" font-family="SimHei, Noto Sans SC, sans-serif" font-size="30px" fill="black" >start_time</text>
<ellipse cx="2620.0" cy="3372.0" rx="95" ry="22" fill="white" stroke="black" stroke-width="2.2"/>
<text x="2620.0" y="3372.0" text-anchor="middle" dominant-baseline="middle" font-family="SimHei, Noto Sans SC, sans-serif" font-size="30px" fill="black" >end_time</text>
<ellipse cx="2620.0" cy="3422.0" rx="95" ry="22" fill="white" stroke="black" stroke-width="2.2"/>
<text x="2620.0" y="3422.0" text-anchor="middle" dominant-baseline="middle" font-family="SimHei, Noto Sans SC, sans-serif" font-size="30px" fill="black" >recruit_num</text>
<ellipse cx="2620.0" cy="3472.0" rx="95" ry="22" fill="white" stroke="black" stroke-width="2.2"/>
<text x="2620.0" y="3472.0" text-anchor="middle" dominant-baseline="middle" font-family="SimHei, Noto Sans SC, sans-serif" font-size="30px" fill="black" >hired_num</text>
<ellipse cx="2620.0" cy="3522.0" rx="95" ry="22" fill="white" stroke="black" stroke-width="2.2"/>
<text x="2620.0" y="3522.0" text-anchor="middle" dominant-baseline="middle" font-family="SimHei, Noto Sans SC, sans-serif" font-size="30px" fill="black" >status</text>
<ellipse cx="2620.0" cy="3572.0" rx="95" ry="22" fill="white" stroke="black" stroke-width="2.2"/>
<text x="2620.0" y="3572.0" text-anchor="middle" dominant-baseline="middle" font-family="SimHei, Noto Sans SC, sans-serif" font-size="30px" fill="black" >audit_status</text>
<ellipse cx="2620.0" cy="3622.0" rx="95" ry="22" fill="white" stroke="black" stroke-width="2.2"/>
<text x="2620.0" y="3622.0" text-anchor="middle" dominant-baseline="middle" font-family="SimHei, Noto Sans SC, sans-serif" font-size="30px" fill="black" >audit_remark</text>
<ellipse cx="2620.0" cy="3672.0" rx="95" ry="22" fill="white" stroke="black" stroke-width="2.2"/>
<text x="2620.0" y="3672.0" text-anchor="middle" dominant-baseline="middle" font-family="SimHei, Noto Sans SC, sans-serif" font-size="30px" fill="black" >version</text>
<ellipse cx="2620.0" cy="3722.0" rx="95" ry="22" fill="white" stroke="black" stroke-width="2.2"/>
<text x="2620.0" y="3722.0" text-anchor="middle" dominant-baseline="middle" font-family="SimHei, Noto Sans SC, sans-serif" font-size="30px" fill="black" >deleted</text>
<ellipse cx="2620.0" cy="3772.0" rx="95" ry="22" fill="white" stroke="black" stroke-width="2.2"/>
<text x="2620.0" y="3772.0" text-anchor="middle" dominant-baseline="middle" font-family="SimHei, Noto Sans SC, sans-serif" font-size="30px" fill="black" >create_time</text>
<ellipse cx="2620.0" cy="3822.0" rx="95" ry="22" fill="white" stroke="black" stroke-width="2.2"/>
<text x="2620.0" y="3822.0" text-anchor="middle" dominant-baseline="middle" font-family="SimHei, Noto Sans SC, sans-serif" font-size="30px" fill="black" >update_time</text>
<ellipse cx="220.0" cy="4997.0" rx="95" ry="22" fill="white" stroke="black" stroke-width="2.7"/>
<text x="220.0" y="4997.0" text-anchor="middle" dominant-baseline="middle" font-family="SimHei, Noto Sans SC, sans-serif" font-size="30px" fill="black" text-decoration="underline">id</text>
<ellipse cx="220.0" cy="5047.0" rx="95" ry="22" fill="white" stroke="black" stroke-width="2.2"/>
<text x="220.0" y="5047.0" text-anchor="middle" dominant-baseline="middle" font-family="SimHei, Noto Sans SC, sans-serif" font-size="30px" fill="black" >job_id</text>
<ellipse cx="220.0" cy="5097.0" rx="95" ry="22" fill="white" stroke="black" stroke-width="2.2"/>
<text x="220.0" y="5097.0" text-anchor="middle" dominant-baseline="middle" font-family="SimHei, Noto Sans SC, sans-serif" font-size="30px" fill="black" >applicant_id</text>
<ellipse cx="220.0" cy="5147.0" rx="95" ry="22" fill="white" stroke="black" stroke-width="2.2"/>
<text x="220.0" y="5147.0" text-anchor="middle" dominant-baseline="middle" font-family="SimHei, Noto Sans SC, sans-serif" font-size="30px" fill="black" >resume_url</text>
<ellipse cx="220.0" cy="5197.0" rx="95" ry="22" fill="white" stroke="black" stroke-width="2.2"/>
<text x="220.0" y="5197.0" text-anchor="middle" dominant-baseline="middle" font-family="SimHei, Noto Sans SC, sans-serif" font-size="30px" fill="black" >status</text>
<ellipse cx="220.0" cy="5247.0" rx="95" ry="22" fill="white" stroke="black" stroke-width="2.2"/>
<text x="220.0" y="5247.0" text-anchor="middle" dominant-baseline="middle" font-family="SimHei, Noto Sans SC, sans-serif" font-size="30px" fill="black" >apply_time</text>
<ellipse cx="220.0" cy="5297.0" rx="95" ry="22" fill="white" stroke="black" stroke-width="2.2"/>
<text x="220.0" y="5297.0" text-anchor="middle" dominant-baseline="middle" font-family="SimHei, Noto Sans SC, sans-serif" font-size="30px" fill="black" >review_time</text>
<ellipse cx="220.0" cy="5347.0" rx="95" ry="22" fill="white" stroke="black" stroke-width="2.2"/>
<text x="220.0" y="5347.0" text-anchor="middle" dominant-baseline="middle" font-family="SimHei, Noto Sans SC, sans-serif" font-size="30px" fill="black" >reject_reason</text>
<ellipse cx="2620.0" cy="4897.0" rx="95" ry="22" fill="white" stroke="black" stroke-width="2.7"/>
<text x="2620.0" y="4897.0" text-anchor="middle" dominant-baseline="middle" font-family="SimHei, Noto Sans SC, sans-serif" font-size="30px" fill="black" text-decoration="underline">id</text>
<ellipse cx="2620.0" cy="4947.0" rx="95" ry="22" fill="white" stroke="black" stroke-width="2.2"/>
<text x="2620.0" y="4947.0" text-anchor="middle" dominant-baseline="middle" font-family="SimHei, Noto Sans SC, sans-serif" font-size="30px" fill="black" >application_id</text>
<ellipse cx="2620.0" cy="4997.0" rx="95" ry="22" fill="white" stroke="black" stroke-width="2.2"/>
<text x="2620.0" y="4997.0" text-anchor="middle" dominant-baseline="middle" font-family="SimHei, Noto Sans SC, sans-serif" font-size="30px" fill="black" >student_id</text>
<ellipse cx="2620.0" cy="5047.0" rx="95" ry="22" fill="white" stroke="black" stroke-width="2.2"/>
<text x="2620.0" y="5047.0" text-anchor="middle" dominant-baseline="middle" font-family="SimHei, Noto Sans SC, sans-serif" font-size="30px" fill="black" >employer_id</text>
<ellipse cx="2620.0" cy="5097.0" rx="95" ry="22" fill="white" stroke="black" stroke-width="2.2"/>
<text x="2620.0" y="5097.0" text-anchor="middle" dominant-baseline="middle" font-family="SimHei, Noto Sans SC, sans-serif" font-size="30px" fill="black" >job_id</text>
<ellipse cx="2620.0" cy="5147.0" rx="95" ry="22" fill="white" stroke="black" stroke-width="2.2"/>
<text x="2620.0" y="5147.0" text-anchor="middle" dominant-baseline="middle" font-family="SimHei, Noto Sans SC, sans-serif" font-size="30px" fill="black" >amount</text>
<ellipse cx="2620.0" cy="5197.0" rx="95" ry="22" fill="white" stroke="black" stroke-width="2.2"/>
<text x="2620.0" y="5197.0" text-anchor="middle" dominant-baseline="middle" font-family="SimHei, Noto Sans SC, sans-serif" font-size="30px" fill="black" >pay_status</text>
<ellipse cx="2620.0" cy="5247.0" rx="95" ry="22" fill="white" stroke="black" stroke-width="2.2"/>
<text x="2620.0" y="5247.0" text-anchor="middle" dominant-baseline="middle" font-family="SimHei, Noto Sans SC, sans-serif" font-size="30px" fill="black" >settlement_status</text>
<ellipse cx="2620.0" cy="5297.0" rx="95" ry="22" fill="white" stroke="black" stroke-width="2.2"/>
<text x="2620.0" y="5297.0" text-anchor="middle" dominant-baseline="middle" font-family="SimHei, Noto Sans SC, sans-serif" font-size="30px" fill="black" >start_date</text>
<ellipse cx="2620.0" cy="5347.0" rx="95" ry="22" fill="white" stroke="black" stroke-width="2.2"/>
<text x="2620.0" y="5347.0" text-anchor="middle" dominant-baseline="middle" font-family="SimHei, Noto Sans SC, sans-serif" font-size="30px" fill="black" >end_date</text>
<ellipse cx="2620.0" cy="5397.0" rx="95" ry="22" fill="white" stroke="black" stroke-width="2.2"/>
<text x="2620.0" y="5397.0" text-anchor="middle" dominant-baseline="middle" font-family="SimHei, Noto Sans SC, sans-serif" font-size="30px" fill="black" >create_time</text>
<ellipse cx="2620.0" cy="5447.0" rx="95" ry="22" fill="white" stroke="black" stroke-width="2.2"/>
<text x="2620.0" y="5447.0" text-anchor="middle" dominant-baseline="middle" font-family="SimHei, Noto Sans SC, sans-serif" font-size="30px" fill="black" >update_time</text>
<ellipse cx="1720.0" cy="6572.0" rx="95" ry="22" fill="white" stroke="black" stroke-width="2.7"/>
<text x="1720.0" y="6572.0" text-anchor="middle" dominant-baseline="middle" font-family="SimHei, Noto Sans SC, sans-serif" font-size="30px" fill="black" text-decoration="underline">id</text>
<ellipse cx="1720.0" cy="6622.0" rx="95" ry="22" fill="white" stroke="black" stroke-width="2.2"/>
<text x="1720.0" y="6622.0" text-anchor="middle" dominant-baseline="middle" font-family="SimHei, Noto Sans SC, sans-serif" font-size="30px" fill="black" >order_id</text>
<ellipse cx="1720.0" cy="6672.0" rx="95" ry="22" fill="white" stroke="black" stroke-width="2.2"/>
<text x="1720.0" y="6672.0" text-anchor="middle" dominant-baseline="middle" font-family="SimHei, Noto Sans SC, sans-serif" font-size="30px" fill="black" >reviewer_id</text>
<ellipse cx="1720.0" cy="6722.0" rx="95" ry="22" fill="white" stroke="black" stroke-width="2.2"/>
<text x="1720.0" y="6722.0" text-anchor="middle" dominant-baseline="middle" font-family="SimHei, Noto Sans SC, sans-serif" font-size="30px" fill="black" >target_id</text>
<ellipse cx="1720.0" cy="6772.0" rx="95" ry="22" fill="white" stroke="black" stroke-width="2.2"/>
<text x="1720.0" y="6772.0" text-anchor="middle" dominant-baseline="middle" font-family="SimHei, Noto Sans SC, sans-serif" font-size="30px" fill="black" >rating</text>
<ellipse cx="1720.0" cy="6822.0" rx="95" ry="22" fill="white" stroke="black" stroke-width="2.2"/>
<text x="1720.0" y="6822.0" text-anchor="middle" dominant-baseline="middle" font-family="SimHei, Noto Sans SC, sans-serif" font-size="30px" fill="black" >comment</text>
<ellipse cx="1720.0" cy="6872.0" rx="95" ry="22" fill="white" stroke="black" stroke-width="2.2"/>
<text x="1720.0" y="6872.0" text-anchor="middle" dominant-baseline="middle" font-family="SimHei, Noto Sans SC, sans-serif" font-size="30px" fill="black" >type</text>
<ellipse cx="1720.0" cy="6922.0" rx="95" ry="22" fill="white" stroke="black" stroke-width="2.2"/>
<text x="1720.0" y="6922.0" text-anchor="middle" dominant-baseline="middle" font-family="SimHei, Noto Sans SC, sans-serif" font-size="30px" fill="black" >create_time</text>
<ellipse cx="1720.0" cy="6972.0" rx="95" ry="22" fill="white" stroke="black" stroke-width="2.2"/>
<text x="1720.0" y="6972.0" text-anchor="middle" dominant-baseline="middle" font-family="SimHei, Noto Sans SC, sans-serif" font-size="30px" fill="black" >update_time</text>
<ellipse cx="220.0" cy="147.0" rx="95" ry="22" fill="white" stroke="black" stroke-width="2.7"/>
<text x="220.0" y="147.0" text-anchor="middle" dominant-baseline="middle" font-family="SimHei, Noto Sans SC, sans-serif" font-size="30px" fill="black" text-decoration="underline">id</text>
<ellipse cx="220.0" cy="197.0" rx="95" ry="22" fill="white" stroke="black" stroke-width="2.2"/>
<text x="220.0" y="197.0" text-anchor="middle" dominant-baseline="middle" font-family="SimHei, Noto Sans SC, sans-serif" font-size="30px" fill="black" >dict_type</text>
<ellipse cx="220.0" cy="247.0" rx="95" ry="22" fill="white" stroke="black" stroke-width="2.2"/>
<text x="220.0" y="247.0" text-anchor="middle" dominant-baseline="middle" font-family="SimHei, Noto Sans SC, sans-serif" font-size="30px" fill="black" >dict_code</text>
<ellipse cx="220.0" cy="297.0" rx="95" ry="22" fill="white" stroke="black" stroke-width="2.2"/>
<text x="220.0" y="297.0" text-anchor="middle" dominant-baseline="middle" font-family="SimHei, Noto Sans SC, sans-serif" font-size="30px" fill="black" >dict_label</text>
<ellipse cx="220.0" cy="347.0" rx="95" ry="22" fill="white" stroke="black" stroke-width="2.2"/>
<text x="220.0" y="347.0" text-anchor="middle" dominant-baseline="middle" font-family="SimHei, Noto Sans SC, sans-serif" font-size="30px" fill="black" >sort_order</text>
<ellipse cx="220.0" cy="397.0" rx="95" ry="22" fill="white" stroke="black" stroke-width="2.2"/>
<text x="220.0" y="397.0" text-anchor="middle" dominant-baseline="middle" font-family="SimHei, Noto Sans SC, sans-serif" font-size="30px" fill="black" >status</text>
<rect x="380.0" y="3334.0" width="280" height="76" fill="white" stroke="black" stroke-width="2.2" rx="3"/>
<text x="520.0" y="3362.0" text-anchor="middle" dominant-baseline="middle" font-family="SimHei, Noto Sans SC, sans-serif" font-size="30px" font-weight="bold" fill="black" >sys_user</text>
<text x="520.0" y="3386.0" text-anchor="middle" dominant-baseline="middle" font-family="SimHei, Noto Sans SC, sans-serif" font-size="26px" font-weight="normal" fill="black" >(系统用户)</text>
<rect x="380.0" y="1334.0" width="280" height="76" fill="white" stroke="black" stroke-width="2.2" rx="3"/>
<text x="520.0" y="1362.0" text-anchor="middle" dominant-baseline="middle" font-family="SimHei, Noto Sans SC, sans-serif" font-size="30px" font-weight="bold" fill="black" >user_profile</text>
<text x="520.0" y="1386.0" text-anchor="middle" dominant-baseline="middle" font-family="SimHei, Noto Sans SC, sans-serif" font-size="26px" font-weight="normal" fill="black" >(用户详情)</text>
<rect x="2180.0" y="1334.0" width="280" height="76" fill="white" stroke="black" stroke-width="2.2" rx="3"/>
<text x="2320.0" y="1362.0" text-anchor="middle" dominant-baseline="middle" font-family="SimHei, Noto Sans SC, sans-serif" font-size="30px" font-weight="bold" fill="black" >job_category</text>
<text x="2320.0" y="1386.0" text-anchor="middle" dominant-baseline="middle" font-family="SimHei, Noto Sans SC, sans-serif" font-size="26px" font-weight="normal" fill="black" >(岗位分类)</text>
<rect x="2180.0" y="3334.0" width="280" height="76" fill="white" stroke="black" stroke-width="2.2" rx="3"/>
<text x="2320.0" y="3362.0" text-anchor="middle" dominant-baseline="middle" font-family="SimHei, Noto Sans SC, sans-serif" font-size="30px" font-weight="bold" fill="black" >job_post</text>
<text x="2320.0" y="3386.0" text-anchor="middle" dominant-baseline="middle" font-family="SimHei, Noto Sans SC, sans-serif" font-size="26px" font-weight="normal" fill="black" >(岗位发布)</text>
<rect x="380.0" y="5134.0" width="280" height="76" fill="white" stroke="black" stroke-width="2.2" rx="3"/>
<text x="520.0" y="5162.0" text-anchor="middle" dominant-baseline="middle" font-family="SimHei, Noto Sans SC, sans-serif" font-size="30px" font-weight="bold" fill="black" >application</text>
<text x="520.0" y="5186.0" text-anchor="middle" dominant-baseline="middle" font-family="SimHei, Noto Sans SC, sans-serif" font-size="26px" font-weight="normal" fill="black" >(报名申请)</text>
<rect x="2180.0" y="5134.0" width="280" height="76" fill="white" stroke="black" stroke-width="2.2" rx="3"/>
<text x="2320.0" y="5162.0" text-anchor="middle" dominant-baseline="middle" font-family="SimHei, Noto Sans SC, sans-serif" font-size="30px" font-weight="bold" fill="black" >order_record</text>
<text x="2320.0" y="5186.0" text-anchor="middle" dominant-baseline="middle" font-family="SimHei, Noto Sans SC, sans-serif" font-size="26px" font-weight="normal" fill="black" >(订单记录)</text>
<rect x="1280.0" y="6734.0" width="280" height="76" fill="white" stroke="black" stroke-width="2.2" rx="3"/>
<text x="1420.0" y="6762.0" text-anchor="middle" dominant-baseline="middle" font-family="SimHei, Noto Sans SC, sans-serif" font-size="30px" font-weight="bold" fill="black" >review</text>
<text x="1420.0" y="6786.0" text-anchor="middle" dominant-baseline="middle" font-family="SimHei, Noto Sans SC, sans-serif" font-size="26px" font-weight="normal" fill="black" >(评价)</text>
<rect x="380.0" y="234.0" width="280" height="76" fill="white" stroke="black" stroke-width="2.2" rx="3"/>
<text x="520.0" y="262.0" text-anchor="middle" dominant-baseline="middle" font-family="SimHei, Noto Sans SC, sans-serif" font-size="30px" font-weight="bold" fill="black" >sys_dict</text>
<text x="520.0" y="286.0" text-anchor="middle" dominant-baseline="middle" font-family="SimHei, Noto Sans SC, sans-serif" font-size="26px" font-weight="normal" fill="black" >(系统字典)</text>
<polygon points="720.0,2322.0 770.0,2372.0 720.0,2422.0 670.0,2372.0" fill="white" stroke="black" stroke-width="2.2"/>
<text x="720.0" y="2372.0" text-anchor="middle" dominant-baseline="middle" font-family="SimHei, Noto Sans SC, sans-serif" font-size="28px" font-weight="normal" fill="black" >拥有</text>
<polygon points="1420.0,3322.0 1470.0,3372.0 1420.0,3422.0 1370.0,3372.0" fill="white" stroke="black" stroke-width="2.2"/>
<text x="1420.0" y="3372.0" text-anchor="middle" dominant-baseline="middle" font-family="SimHei, Noto Sans SC, sans-serif" font-size="28px" font-weight="normal" fill="black" >发布</text>
<polygon points="2120.0,2322.0 2170.0,2372.0 2120.0,2422.0 2070.0,2372.0" fill="white" stroke="black" stroke-width="2.2"/>
<text x="2120.0" y="2372.0" text-anchor="middle" dominant-baseline="middle" font-family="SimHei, Noto Sans SC, sans-serif" font-size="28px" font-weight="normal" fill="black" >归属</text>
<polygon points="2240.0,1194.0 2290.0,1244.0 2240.0,1294.0 2190.0,1244.0" fill="white" stroke="black" stroke-width="2.2"/>
<text x="2240.0" y="1244.0" text-anchor="middle" dominant-baseline="middle" font-family="SimHei, Noto Sans SC, sans-serif" font-size="28px" font-weight="normal" fill="black" >父子</text>
<polygon points="1420.0,4222.0 1470.0,4272.0 1420.0,4322.0 1370.0,4272.0" fill="white" stroke="black" stroke-width="2.2"/>
<text x="1420.0" y="4272.0" text-anchor="middle" dominant-baseline="middle" font-family="SimHei, Noto Sans SC, sans-serif" font-size="28px" font-weight="normal" fill="black" >收到</text>
<polygon points="720.0,4222.0 770.0,4272.0 720.0,4322.0 670.0,4272.0" fill="white" stroke="black" stroke-width="2.2"/>
<text x="720.0" y="4272.0" text-anchor="middle" dominant-baseline="middle" font-family="SimHei, Noto Sans SC, sans-serif" font-size="28px" font-weight="normal" fill="black" >申请</text>
<polygon points="1420.0,5122.0 1470.0,5172.0 1420.0,5222.0 1370.0,5172.0" fill="white" stroke="black" stroke-width="2.2"/>
<text x="1420.0" y="5172.0" text-anchor="middle" dominant-baseline="middle" font-family="SimHei, Noto Sans SC, sans-serif" font-size="28px" font-weight="normal" fill="black" >生成</text>
<polygon points="2120.0,4222.0 2170.0,4272.0 2120.0,4322.0 2070.0,4272.0" fill="white" stroke="black" stroke-width="2.2"/>
<text x="2120.0" y="4272.0" text-anchor="middle" dominant-baseline="middle" font-family="SimHei, Noto Sans SC, sans-serif" font-size="28px" font-weight="normal" fill="black" >关联</text>
<polygon points="1620.0,5922.0 1670.0,5972.0 1620.0,6022.0 1570.0,5972.0" fill="white" stroke="black" stroke-width="2.2"/>
<text x="1620.0" y="5972.0" text-anchor="middle" dominant-baseline="middle" font-family="SimHei, Noto Sans SC, sans-serif" font-size="28px" font-weight="normal" fill="black" >产生</text>
<polygon points="820.0,4022.0 870.0,4072.0 820.0,4122.0 770.0,4072.0" fill="white" stroke="black" stroke-width="2.2"/>
<text x="820.0" y="4062.0" text-anchor="middle" dominant-baseline="middle" font-family="SimHei, Noto Sans SC, sans-serif" font-size="26px" font-weight="normal" fill="black" >学生</text>
<text x="820.0" y="4084.0" text-anchor="middle" dominant-baseline="middle" font-family="SimHei, Noto Sans SC, sans-serif" font-size="26px" font-weight="normal" fill="black" >下单</text>
<polygon points="820.0,4222.0 870.0,4272.0 820.0,4322.0 770.0,4272.0" fill="white" stroke="black" stroke-width="2.2"/>
<text x="820.0" y="4262.0" text-anchor="middle" dominant-baseline="middle" font-family="SimHei, Noto Sans SC, sans-serif" font-size="26px" font-weight="normal" fill="black" >雇主</text>
<text x="820.0" y="4284.0" text-anchor="middle" dominant-baseline="middle" font-family="SimHei, Noto Sans SC, sans-serif" font-size="26px" font-weight="normal" fill="black" >接单</text>
<polygon points="820.0,4872.0 870.0,4922.0 820.0,4972.0 770.0,4922.0" fill="white" stroke="black" stroke-width="2.2"/>
<text x="820.0" y="4922.0" text-anchor="middle" dominant-baseline="middle" font-family="SimHei, Noto Sans SC, sans-serif" font-size="28px" font-weight="normal" fill="black" >评价人</text>
<polygon points="820.0,5072.0 870.0,5122.0 820.0,5172.0 770.0,5122.0" fill="white" stroke="black" stroke-width="2.2"/>
<text x="820.0" y="5112.0" text-anchor="middle" dominant-baseline="middle" font-family="SimHei, Noto Sans SC, sans-serif" font-size="26px" font-weight="normal" fill="black" >被评</text>
<text x="820.0" y="5134.0" text-anchor="middle" dominant-baseline="middle" font-family="SimHei, Noto Sans SC, sans-serif" font-size="26px" font-weight="normal" fill="black" >价人</text>
</svg>