<?xml version="1.0" encoding="UTF-8"?>
<svg xmlns="http://www.w3.org/2000/svg" width="1032" height="1846" viewBox="0 0 1032 1846">
<rect width="1032" height="1846" fill="white"/>
<polyline points="192,74 225,74" fill="none" stroke="black" stroke-width="1.2"/>
<polyline points="192,107 225,107" fill="none" stroke="black" stroke-width="1.2"/>
<polyline points="192,140 225,140" fill="none" stroke="black" stroke-width="1.2"/>
<polyline points="192,173 225,173" fill="none" stroke="black" stroke-width="1.2"/>
<polyline points="192,206 225,206" fill="none" stroke="black" stroke-width="1.2"/>
<polyline points="192,239 225,239" fill="none" stroke="black" stroke-width="1.2"/>
<polyline points="192,292 225,292" fill="none" stroke="black" stroke-width="1.2"/>
<polyline points="192,325 225,325" fill="none" stroke="black" stroke-width="1.2"/>
<polyline points="192,358 225,358" fill="none" stroke="black" stroke-width="1.2"/>
<polyline points="192,391 225,391" fill="none" stroke="black" stroke-width="1.2"/>
<polyline points="192,424 225,424" fill="none" stroke="black" stroke-width="1.2"/>
<polyline points="192,457 225,457" fill="none" stroke="black" stroke-width="1.2"/>
<polyline points="192,490 225,490" fill="none" stroke="black" stroke-width="1.2"/>
<polyline points="192,523 225,523" fill="none" stroke="black" stroke-width="1.2"/>
<polyline points="192,556 225,556" fill="none" stroke="black" stroke-width="1.2"/>
<polyline points="192,589 225,589" fill="none" stroke="black" stroke-width="1.2"/>
<polyline points="192,622 225,622" fill="none" stroke="black" stroke-width="1.2"/>
<polyline points="192,655 225,655" fill="none" stroke="black" stroke-width="1.2"/>
<polyline points="192,688 225,688" fill="none" stroke="black" stroke-width="1.2"/>
<polyline points="192,721 225,721" fill="none" stroke="black" stroke-width="1.2"/>
<polyline points="192,754 225,754" fill="none" stroke="black" stroke-width="1.2"/>
<polyline points="192,807 225,807" fill="none" stroke="black" stroke-width="1.2"/>
<polyline points="192,840 225,840" fill="none" stroke="black" stroke-width="1.2"/>
<polyline points="192,873 225,873" fill="none" stroke="black" stroke-width="1.2"/>
<polyline points="192,906 225,906" fill="none" stroke="black" stroke-width="1.2"/>
<polyline points="192,939 225,939" fill="none" stroke="black" stroke-width="1.2"/>
<polyline points="192,972 225,972" fill="none" stroke="black" stroke-width="1.2"/>
<polyline points="192,1005 225,1005" fill="none" stroke="black" stroke-width="1.2"/>
<polyline points="192,1038 225,1038" fill="none" stroke="black" stroke-width="1.2"/>
<polyline points="192,1071 225,1071" fill="none" stroke="black" stroke-width="1.2"/>
<polyline points="192,1104 225,1104" fill="none" stroke="black" stroke-width="1.2"/>
<polyline points="192,1157 225,1157" fill="none" stroke="black" stroke-width="1.2"/>
<polyline points="192,1190 225,1190" fill="none" stroke="black" stroke-width="1.2"/>
<polyline points="192,1223 225,1223" fill="none" stroke="black" stroke-width="1.2"/>
<polyline points="192,1256 225,1256" fill="none" stroke="black" stroke-width="1.2"/>
<polyline points="192,1289 225,1289" fill="none" stroke="black" stroke-width="1.2"/>
<polyline points="192,1322 225,1322" fill="none" stroke="black" stroke-width="1.2"/>
<polyline points="192,1355 225,1355" fill="none" stroke="black" stroke-width="1.2"/>
<polyline points="192,1388 225,1388" fill="none" stroke="black" stroke-width="1.2"/>
<polyline points="848,74 815,74" fill="none" stroke="black" stroke-width="1.2"/>
<polyline points="848,107 815,107" fill="none" stroke="black" stroke-width="1.2"/>
<polyline points="848,140 815,140" fill="none" stroke="black" stroke-width="1.2"/>
<polyline points="848,173 815,173" fill="none" stroke="black" stroke-width="1.2"/>
<polyline points="848,206 815,206" fill="none" stroke="black" stroke-width="1.2"/>
<polyline points="848,259 815,259" fill="none" stroke="black" stroke-width="1.2"/>
<polyline points="848,292 815,292" fill="none" stroke="black" stroke-width="1.2"/>
<polyline points="848,325 815,325" fill="none" stroke="black" stroke-width="1.2"/>
<polyline points="848,358 815,358" fill="none" stroke="black" stroke-width="1.2"/>
<polyline points="848,391 815,391" fill="none" stroke="black" stroke-width="1.2"/>
<polyline points="848,424 815,424" fill="none" stroke="black" stroke-width="1.2"/>
<polyline points="848,457 815,457" fill="none" stroke="black" stroke-width="1.2"/>
<polyline points="848,490 815,490" fill="none" stroke="black" stroke-width="1.2"/>
<polyline points="848,523 815,523" fill="none" stroke="black" stroke-width="1.2"/>
<polyline points="848,556 815,556" fill="none" stroke="black" stroke-width="1.2"/>
<polyline points="848,589 815,589" fill="none" stroke="black" stroke-width="1.2"/>
<polyline points="848,622 815,622" fill="none" stroke="black" stroke-width="1.2"/>
<polyline points="848,655 815,655" fill="none" stroke="black" stroke-width="1.2"/>
<polyline points="848,688 815,688" fill="none" stroke="black" stroke-width="1.2"/>
<polyline points="848,721 815,721" fill="none" stroke="black" stroke-width="1.2"/>
<polyline points="848,754 815,754" fill="none" stroke="black" stroke-width="1.2"/>
<polyline points="848,787 815,787" fill="none" stroke="black" stroke-width="1.2"/>
<polyline points="848,820 815,820" fill="none" stroke="black" stroke-width="1.2"/>
<polyline points="848,853 815,853" fill="none" stroke="black" stroke-width="1.2"/>
<polyline points="848,906 815,906" fill="none" stroke="black" stroke-width="1.2"/>
<polyline points="848,939 815,939" fill="none" stroke="black" stroke-width="1.2"/>
<polyline points="848,972 815,972" fill="none" stroke="black" stroke-width="1.2"/>
<polyline points="848,1005 815,1005" fill="none" stroke="black" stroke-width="1.2"/>
<polyline points="848,1038 815,1038" fill="none" stroke="black" stroke-width="1.2"/>
<polyline points="848,1071 815,1071" fill="none" stroke="black" stroke-width="1.2"/>
<polyline points="848,1104 815,1104" fill="none" stroke="black" stroke-width="1.2"/>
<polyline points="848,1137 815,1137" fill="none" stroke="black" stroke-width="1.2"/>
<polyline points="848,1170 815,1170" fill="none" stroke="black" stroke-width="1.2"/>
<polyline points="848,1203 815,1203" fill="none" stroke="black" stroke-width="1.2"/>
<polyline points="848,1236 815,1236" fill="none" stroke="black" stroke-width="1.2"/>
<polyline points="848,1269 815,1269" fill="none" stroke="black" stroke-width="1.2"/>
<polyline points="392,1594 435,1594" fill="none" stroke="black" stroke-width="1.2"/>
<polyline points="392,1627 435,1627" fill="none" stroke="black" stroke-width="1.2"/>
<polyline points="392,1660 435,1660" fill="none" stroke="black" stroke-width="1.2"/>
<polyline points="392,1693 435,1693" fill="none" stroke="black" stroke-width="1.2"/>
<polyline points="392,1726 435,1726" fill="none" stroke="black" stroke-width="1.2"/>
<polyline points="648,1610 605,1610" fill="none" stroke="black" stroke-width="1.2"/>
<polyline points="648,1644 605,1644" fill="none" stroke="black" stroke-width="1.2"/>
<polyline points="648,1676 605,1676" fill="none" stroke="black" stroke-width="1.2"/>
<polyline points="648,1710 605,1710" fill="none" stroke="black" stroke-width="1.2"/>
<polyline points="395,956 455,956 455,739 492,739" fill="none" stroke="black" stroke-width="1.5"/>
<polyline points="492,739 455,739 455,523 395,523" fill="none" stroke="black" stroke-width="1.5"/>
<polyline points="395,956 455,956 455,819 492,819" fill="none" stroke="black" stroke-width="1.5"/>
<polyline points="548,819 585,819 585,556 645,556" fill="none" stroke="black" stroke-width="1.5"/>
<polyline points="645,140 585,140 585,348 548,348" fill="none" stroke="black" stroke-width="1.5"/>
<polyline points="548,348 585,348 585,556 645,556" fill="none" stroke="black" stroke-width="1.5"/>
<polyline points="395,956 455,956 455,1114 492,1114" fill="none" stroke="black" stroke-width="1.5"/>
<polyline points="492,1114 455,1114 455,1272 395,1272" fill="none" stroke="black" stroke-width="1.5"/>
<polyline points="645,556 585,556 585,914 548,914" fill="none" stroke="black" stroke-width="1.5"/>
<polyline points="492,914 455,914 455,1272 395,1272" fill="none" stroke="black" stroke-width="1.5"/>
<polyline points="395,1272 455,1272 455,1194 492,1194" fill="none" stroke="black" stroke-width="1.5"/>
<polyline points="548,1194 585,1194 585,1088 645,1088" fill="none" stroke="black" stroke-width="1.5"/>
<polyline points="395,956 455,956 455,1022 492,1022" fill="none" stroke="black" stroke-width="1.5"/>
<polyline points="548,1022 585,1022 585,1088 645,1088" fill="none" stroke="black" stroke-width="1.5"/>
<polyline points="395,956 455,956 455,1274 492,1274" fill="none" stroke="black" stroke-width="1.5"/>
<polyline points="548,1274 585,1274 585,1088 645,1088" fill="none" stroke="black" stroke-width="1.5"/>
<polyline points="645,556 585,556 585,1354 548,1354" fill="none" stroke="black" stroke-width="1.5"/>
<polyline points="548,1354 585,1354 585,1088 645,1088" fill="none" stroke="black" stroke-width="1.5"/>
<polyline points="395,956 455,956 455,1434 492,1434" fill="none" stroke="black" stroke-width="1.5"/>
<polyline points="548,1434 585,1434 585,1660 435,1660" fill="none" stroke="black" stroke-width="1.5"/>
<polyline points="395,956 455,956 455,1514 492,1514" fill="none" stroke="black" stroke-width="1.5"/>
<polyline points="548,1514 585,1514 585,1660 435,1660" fill="none" stroke="black" stroke-width="1.5"/>
<polyline points="645,1088 585,1088 585,1594 548,1594" fill="none" stroke="black" stroke-width="1.5"/>
<polyline points="492,1594 455,1594 455,1660 605,1660" fill="none" stroke="black" stroke-width="1.5"/>
<polyline points="730,117 730,97" fill="none" stroke="black" stroke-width="1.5"/>
<polyline points="702,69 623,69 623,140 645,140" fill="none" stroke="black" stroke-width="1.5"/>
<polyline points="758,69 837,69 837,132 815,132" fill="none" stroke="black" stroke-width="1.5"/>
<polyline points="310,134 310,114" fill="none" stroke="black" stroke-width="1.5"/>
<polyline points="282,86 203,86 203,156 225,156" fill="none" stroke="black" stroke-width="1.5"/>
<polyline points="338,86 417,86 417,148 395,148" fill="none" stroke="black" stroke-width="1.5"/>
<ellipse cx="120" cy="74" rx="72" ry="14" fill="white" stroke="black" stroke-width="2.0"/>
<text x="120" y="74" text-anchor="middle" dominant-baseline="middle" font-family="WenQuanYi Zen Hei, Noto Sans SC, sans-serif" font-size="30px" fill="black" text-decoration="underline">id</text>
<ellipse cx="120" cy="107" rx="72" ry="14" fill="white" stroke="black" stroke-width="1.5"/>
<text x="120" y="107" text-anchor="middle" dominant-baseline="middle" font-family="WenQuanYi Zen Hei, Noto Sans SC, sans-serif" font-size="30px" fill="black">dict_type</text>
<ellipse cx="120" cy="140" rx="72" ry="14" fill="white" stroke="black" stroke-width="1.5"/>
<text x="120" y="140" text-anchor="middle" dominant-baseline="middle" font-family="WenQuanYi Zen Hei, Noto Sans SC, sans-serif" font-size="30px" fill="black">dict_code</text>
<ellipse cx="120" cy="173" rx="72" ry="14" fill="white" stroke="black" stroke-width="1.5"/>
<text x="120" y="173" text-anchor="middle" dominant-baseline="middle" font-family="WenQuanYi Zen Hei, Noto Sans SC, sans-serif" font-size="30px" fill="black">dict_label</text>
<ellipse cx="120" cy="206" rx="72" ry="14" fill="white" stroke="black" stroke-width="1.5"/>
<text x="120" y="206" text-anchor="middle" dominant-baseline="middle" font-family="WenQuanYi Zen Hei, Noto Sans SC, sans-serif" font-size="30px" fill="black">sort_order</text>
<ellipse cx="120" cy="239" rx="72" ry="14" fill="white" stroke="black" stroke-width="1.5"/>
<text x="120" y="239" text-anchor="middle" dominant-baseline="middle" font-family="WenQuanYi Zen Hei, Noto Sans SC, sans-serif" font-size="30px" fill="black">status</text>
<ellipse cx="120" cy="292" rx="72" ry="14" fill="white" stroke="black" stroke-width="2.0"/>
<text x="120" y="292" text-anchor="middle" dominant-baseline="middle" font-family="WenQuanYi Zen Hei, Noto Sans SC, sans-serif" font-size="30px" fill="black" text-decoration="underline">id</text>
<ellipse cx="120" cy="325" rx="72" ry="14" fill="white" stroke="black" stroke-width="1.5"/>
<text x="120" y="325" text-anchor="middle" dominant-baseline="middle" font-family="WenQuanYi Zen Hei, Noto Sans SC, sans-serif" font-size="30px" fill="black">user_id</text>
<ellipse cx="120" cy="358" rx="72" ry="14" fill="white" stroke="black" stroke-width="1.5"/>
<text x="120" y="358" text-anchor="middle" dominant-baseline="middle" font-family="WenQuanYi Zen Hei, Noto Sans SC, sans-serif" font-size="30px" fill="black">real_name</text>
<ellipse cx="120" cy="391" rx="72" ry="14" fill="white" stroke="black" stroke-width="1.5"/>
<text x="120" y="391" text-anchor="middle" dominant-baseline="middle" font-family="WenQuanYi Zen Hei, Noto Sans SC, sans-serif" font-size="30px" fill="black">id_card_hash</text>
<ellipse cx="120" cy="424" rx="72" ry="14" fill="white" stroke="black" stroke-width="1.5"/>
<text x="120" y="424" text-anchor="middle" dominant-baseline="middle" font-family="WenQuanYi Zen Hei, Noto Sans SC, sans-serif" font-size="30px" fill="black">id_card_image</text>
<ellipse cx="120" cy="457" rx="72" ry="14" fill="white" stroke="black" stroke-width="1.5"/>
<text x="120" y="457" text-anchor="middle" dominant-baseline="middle" font-family="WenQuanYi Zen Hei, Noto Sans SC, sans-serif" font-size="30px" fill="black">gender</text>
<ellipse cx="120" cy="490" rx="72" ry="14" fill="white" stroke="black" stroke-width="1.5"/>
<text x="120" y="490" text-anchor="middle" dominant-baseline="middle" font-family="WenQuanYi Zen Hei, Noto Sans SC, sans-serif" font-size="30px" fill="black">university</text>
<ellipse cx="120" cy="523" rx="72" ry="14" fill="white" stroke="black" stroke-width="1.5"/>
<text x="120" y="523" text-anchor="middle" dominant-baseline="middle" font-family="WenQuanYi Zen Hei, Noto Sans SC, sans-serif" font-size="30px" fill="black">major</text>
<ellipse cx="120" cy="556" rx="72" ry="14" fill="white" stroke="black" stroke-width="1.5"/>
<text x="120" y="556" text-anchor="middle" dominant-baseline="middle" font-family="WenQuanYi Zen Hei, Noto Sans SC, sans-serif" font-size="30px" fill="black">grade</text>
<ellipse cx="120" cy="589" rx="72" ry="14" fill="white" stroke="black" stroke-width="1.5"/>
<text x="120" y="589" text-anchor="middle" dominant-baseline="middle" font-family="WenQuanYi Zen Hei, Noto Sans SC, sans-serif" font-size="30px" fill="black">balance</text>
<ellipse cx="120" cy="622" rx="72" ry="14" fill="white" stroke="black" stroke-width="1.5"/>
<text x="120" y="622" text-anchor="middle" dominant-baseline="middle" font-family="WenQuanYi Zen Hei, Noto Sans SC, sans-serif" font-size="30px" fill="black">credit_score</text>
<ellipse cx="120" cy="655" rx="72" ry="14" fill="white" stroke="black" stroke-width="1.5"/>
<text x="120" y="655" text-anchor="middle" dominant-baseline="middle" font-family="WenQuanYi Zen Hei, Noto Sans SC, sans-serif" font-size="30px" fill="black">avatar_url</text>
<ellipse cx="120" cy="688" rx="72" ry="14" fill="white" stroke="black" stroke-width="1.5"/>
<text x="120" y="688" text-anchor="middle" dominant-baseline="middle" font-family="WenQuanYi Zen Hei, Noto Sans SC, sans-serif" font-size="30px" fill="black">verified_status</text>
<ellipse cx="120" cy="721" rx="72" ry="14" fill="white" stroke="black" stroke-width="1.5"/>
<text x="120" y="721" text-anchor="middle" dominant-baseline="middle" font-family="WenQuanYi Zen Hei, Noto Sans SC, sans-serif" font-size="30px" fill="black">create_time</text>
<ellipse cx="120" cy="754" rx="72" ry="14" fill="white" stroke="black" stroke-width="1.5"/>
<text x="120" y="754" text-anchor="middle" dominant-baseline="middle" font-family="WenQuanYi Zen Hei, Noto Sans SC, sans-serif" font-size="30px" fill="black">update_time</text>
<ellipse cx="120" cy="807" rx="72" ry="14" fill="white" stroke="black" stroke-width="2.0"/>
<text x="120" y="807" text-anchor="middle" dominant-baseline="middle" font-family="WenQuanYi Zen Hei, Noto Sans SC, sans-serif" font-size="30px" fill="black" text-decoration="underline">id</text>
<ellipse cx="120" cy="840" rx="72" ry="14" fill="white" stroke="black" stroke-width="1.5"/>
<text x="120" y="840" text-anchor="middle" dominant-baseline="middle" font-family="WenQuanYi Zen Hei, Noto Sans SC, sans-serif" font-size="30px" fill="black">username</text>
<ellipse cx="120" cy="873" rx="72" ry="14" fill="white" stroke="black" stroke-width="1.5"/>
<text x="120" y="873" text-anchor="middle" dominant-baseline="middle" font-family="WenQuanYi Zen Hei, Noto Sans SC, sans-serif" font-size="30px" fill="black">password_hash</text>
<ellipse cx="120" cy="906" rx="72" ry="14" fill="white" stroke="black" stroke-width="1.5"/>
<text x="120" y="906" text-anchor="middle" dominant-baseline="middle" font-family="WenQuanYi Zen Hei, Noto Sans SC, sans-serif" font-size="30px" fill="black">phone</text>
<ellipse cx="120" cy="939" rx="72" ry="14" fill="white" stroke="black" stroke-width="1.5"/>
<text x="120" y="939" text-anchor="middle" dominant-baseline="middle" font-family="WenQuanYi Zen Hei, Noto Sans SC, sans-serif" font-size="30px" fill="black">email</text>
<ellipse cx="120" cy="972" rx="72" ry="14" fill="white" stroke="black" stroke-width="1.5"/>
<text x="120" y="972" text-anchor="middle" dominant-baseline="middle" font-family="WenQuanYi Zen Hei, Noto Sans SC, sans-serif" font-size="30px" fill="black">role_type</text>
<ellipse cx="120" cy="1005" rx="72" ry="14" fill="white" stroke="black" stroke-width="1.5"/>
<text x="120" y="1005" text-anchor="middle" dominant-baseline="middle" font-family="WenQuanYi Zen Hei, Noto Sans SC, sans-serif" font-size="30px" fill="black">status</text>
<ellipse cx="120" cy="1038" rx="72" ry="14" fill="white" stroke="black" stroke-width="1.5"/>
<text x="120" y="1038" text-anchor="middle" dominant-baseline="middle" font-family="WenQuanYi Zen Hei, Noto Sans SC, sans-serif" font-size="30px" fill="black">deleted</text>
<ellipse cx="120" cy="1071" rx="72" ry="14" fill="white" stroke="black" stroke-width="1.5"/>
<text x="120" y="1071" text-anchor="middle" dominant-baseline="middle" font-family="WenQuanYi Zen Hei, Noto Sans SC, sans-serif" font-size="30px" fill="black">create_time</text>
<ellipse cx="120" cy="1104" rx="72" ry="14" fill="white" stroke="black" stroke-width="1.5"/>
<text x="120" y="1104" text-anchor="middle" dominant-baseline="middle" font-family="WenQuanYi Zen Hei, Noto Sans SC, sans-serif" font-size="30px" fill="black">update_time</text>
<ellipse cx="120" cy="1157" rx="72" ry="14" fill="white" stroke="black" stroke-width="2.0"/>
<text x="120" y="1157" text-anchor="middle" dominant-baseline="middle" font-family="WenQuanYi Zen Hei, Noto Sans SC, sans-serif" font-size="30px" fill="black" text-decoration="underline">id</text>
<ellipse cx="120" cy="1190" rx="72" ry="14" fill="white" stroke="black" stroke-width="1.5"/>
<text x="120" y="1190" text-anchor="middle" dominant-baseline="middle" font-family="WenQuanYi Zen Hei, Noto Sans SC, sans-serif" font-size="30px" fill="black">job_id</text>
<ellipse cx="120" cy="1223" rx="72" ry="14" fill="white" stroke="black" stroke-width="1.5"/>
<text x="120" y="1223" text-anchor="middle" dominant-baseline="middle" font-family="WenQuanYi Zen Hei, Noto Sans SC, sans-serif" font-size="30px" fill="black">applicant_id</text>
<ellipse cx="120" cy="1256" rx="72" ry="14" fill="white" stroke="black" stroke-width="1.5"/>
<text x="120" y="1256" text-anchor="middle" dominant-baseline="middle" font-family="WenQuanYi Zen Hei, Noto Sans SC, sans-serif" font-size="30px" fill="black">resume_url</text>
<ellipse cx="120" cy="1289" rx="72" ry="14" fill="white" stroke="black" stroke-width="1.5"/>
<text x="120" y="1289" text-anchor="middle" dominant-baseline="middle" font-family="WenQuanYi Zen Hei, Noto Sans SC, sans-serif" font-size="30px" fill="black">status</text>
<ellipse cx="120" cy="1322" rx="72" ry="14" fill="white" stroke="black" stroke-width="1.5"/>
<text x="120" y="1322" text-anchor="middle" dominant-baseline="middle" font-family="WenQuanYi Zen Hei, Noto Sans SC, sans-serif" font-size="30px" fill="black">apply_time</text>
<ellipse cx="120" cy="1355" rx="72" ry="14" fill="white" stroke="black" stroke-width="1.5"/>
<text x="120" y="1355" text-anchor="middle" dominant-baseline="middle" font-family="WenQuanYi Zen Hei, Noto Sans SC, sans-serif" font-size="30px" fill="black">review_time</text>
<ellipse cx="120" cy="1388" rx="72" ry="14" fill="white" stroke="black" stroke-width="1.5"/>
<text x="120" y="1388" text-anchor="middle" dominant-baseline="middle" font-family="WenQuanYi Zen Hei, Noto Sans SC, sans-serif" font-size="30px" fill="black">reject_reason</text>
<ellipse cx="920" cy="74" rx="72" ry="14" fill="white" stroke="black" stroke-width="2.0"/>
<text x="920" y="74" text-anchor="middle" dominant-baseline="middle" font-family="WenQuanYi Zen Hei, Noto Sans SC, sans-serif" font-size="30px" fill="black" text-decoration="underline">id</text>
<ellipse cx="920" cy="107" rx="72" ry="14" fill="white" stroke="black" stroke-width="1.5"/>
<text x="920" y="107" text-anchor="middle" dominant-baseline="middle" font-family="WenQuanYi Zen Hei, Noto Sans SC, sans-serif" font-size="30px" fill="black">name</text>
<ellipse cx="920" cy="140" rx="72" ry="14" fill="white" stroke="black" stroke-width="1.5"/>
<text x="920" y="140" text-anchor="middle" dominant-baseline="middle" font-family="WenQuanYi Zen Hei, Noto Sans SC, sans-serif" font-size="30px" fill="black">parent_id</text>
<ellipse cx="920" cy="173" rx="72" ry="14" fill="white" stroke="black" stroke-width="1.5"/>
<text x="920" y="173" text-anchor="middle" dominant-baseline="middle" font-family="WenQuanYi Zen Hei, Noto Sans SC, sans-serif" font-size="30px" fill="black">sort_order</text>
<ellipse cx="920" cy="206" rx="72" ry="14" fill="white" stroke="black" stroke-width="1.5"/>
<text x="920" y="206" text-anchor="middle" dominant-baseline="middle" font-family="WenQuanYi Zen Hei, Noto Sans SC, sans-serif" font-size="30px" fill="black">status</text>
<ellipse cx="920" cy="259" rx="72" ry="14" fill="white" stroke="black" stroke-width="2.0"/>
<text x="920" y="259" text-anchor="middle" dominant-baseline="middle" font-family="WenQuanYi Zen Hei, Noto Sans SC, sans-serif" font-size="30px" fill="black" text-decoration="underline">id</text>
<ellipse cx="920" cy="292" rx="72" ry="14" fill="white" stroke="black" stroke-width="1.5"/>
<text x="920" y="292" text-anchor="middle" dominant-baseline="middle" font-family="WenQuanYi Zen Hei, Noto Sans SC, sans-serif" font-size="30px" fill="black">publisher_id</text>
<ellipse cx="920" cy="325" rx="72" ry="14" fill="white" stroke="black" stroke-width="1.5"/>
<text x="920" y="325" text-anchor="middle" dominant-baseline="middle" font-family="WenQuanYi Zen Hei, Noto Sans SC, sans-serif" font-size="30px" fill="black">category_id</text>
<ellipse cx="920" cy="358" rx="72" ry="14" fill="white" stroke="black" stroke-width="1.5"/>
<text x="920" y="358" text-anchor="middle" dominant-baseline="middle" font-family="WenQuanYi Zen Hei, Noto Sans SC, sans-serif" font-size="30px" fill="black">title</text>
<ellipse cx="920" cy="391" rx="72" ry="14" fill="white" stroke="black" stroke-width="1.5"/>
<text x="920" y="391" text-anchor="middle" dominant-baseline="middle" font-family="WenQuanYi Zen Hei, Noto Sans SC, sans-serif" font-size="30px" fill="black">description</text>
<ellipse cx="920" cy="424" rx="72" ry="14" fill="white" stroke="black" stroke-width="1.5"/>
<text x="920" y="424" text-anchor="middle" dominant-baseline="middle" font-family="WenQuanYi Zen Hei, Noto Sans SC, sans-serif" font-size="30px" fill="black">location</text>
<ellipse cx="920" cy="457" rx="72" ry="14" fill="white" stroke="black" stroke-width="1.5"/>
<text x="920" y="457" text-anchor="middle" dominant-baseline="middle" font-family="WenQuanYi Zen Hei, Noto Sans SC, sans-serif" font-size="30px" fill="black">salary_type</text>
<ellipse cx="920" cy="490" rx="72" ry="14" fill="white" stroke="black" stroke-width="1.5"/>
<text x="920" y="490" text-anchor="middle" dominant-baseline="middle" font-family="WenQuanYi Zen Hei, Noto Sans SC, sans-serif" font-size="30px" fill="black">salary_amount</text>
<ellipse cx="920" cy="523" rx="72" ry="14" fill="white" stroke="black" stroke-width="1.5"/>
<text x="920" y="523" text-anchor="middle" dominant-baseline="middle" font-family="WenQuanYi Zen Hei, Noto Sans SC, sans-serif" font-size="30px" fill="black">start_time</text>
<ellipse cx="920" cy="556" rx="72" ry="14" fill="white" stroke="black" stroke-width="1.5"/>
<text x="920" y="556" text-anchor="middle" dominant-baseline="middle" font-family="WenQuanYi Zen Hei, Noto Sans SC, sans-serif" font-size="30px" fill="black">end_time</text>
<ellipse cx="920" cy="589" rx="72" ry="14" fill="white" stroke="black" stroke-width="1.5"/>
<text x="920" y="589" text-anchor="middle" dominant-baseline="middle" font-family="WenQuanYi Zen Hei, Noto Sans SC, sans-serif" font-size="30px" fill="black">recruit_num</text>
<ellipse cx="920" cy="622" rx="72" ry="14" fill="white" stroke="black" stroke-width="1.5"/>
<text x="920" y="622" text-anchor="middle" dominant-baseline="middle" font-family="WenQuanYi Zen Hei, Noto Sans SC, sans-serif" font-size="30px" fill="black">hired_num</text>
<ellipse cx="920" cy="655" rx="72" ry="14" fill="white" stroke="black" stroke-width="1.5"/>
<text x="920" y="655" text-anchor="middle" dominant-baseline="middle" font-family="WenQuanYi Zen Hei, Noto Sans SC, sans-serif" font-size="30px" fill="black">status</text>
<ellipse cx="920" cy="688" rx="72" ry="14" fill="white" stroke="black" stroke-width="1.5"/>
<text x="920" y="688" text-anchor="middle" dominant-baseline="middle" font-family="WenQuanYi Zen Hei, Noto Sans SC, sans-serif" font-size="30px" fill="black">audit_status</text>
<ellipse cx="920" cy="721" rx="72" ry="14" fill="white" stroke="black" stroke-width="1.5"/>
<text x="920" y="721" text-anchor="middle" dominant-baseline="middle" font-family="WenQuanYi Zen Hei, Noto Sans SC, sans-serif" font-size="30px" fill="black">audit_remark</text>
<ellipse cx="920" cy="754" rx="72" ry="14" fill="white" stroke="black" stroke-width="1.5"/>
<text x="920" y="754" text-anchor="middle" dominant-baseline="middle" font-family="WenQuanYi Zen Hei, Noto Sans SC, sans-serif" font-size="30px" fill="black">version</text>
<ellipse cx="920" cy="787" rx="72" ry="14" fill="white" stroke="black" stroke-width="1.5"/>
<text x="920" y="787" text-anchor="middle" dominant-baseline="middle" font-family="WenQuanYi Zen Hei, Noto Sans SC, sans-serif" font-size="30px" fill="black">deleted</text>
<ellipse cx="920" cy="820" rx="72" ry="14" fill="white" stroke="black" stroke-width="1.5"/>
<text x="920" y="820" text-anchor="middle" dominant-baseline="middle" font-family="WenQuanYi Zen Hei, Noto Sans SC, sans-serif" font-size="30px" fill="black">create_time</text>
<ellipse cx="920" cy="853" rx="72" ry="14" fill="white" stroke="black" stroke-width="1.5"/>
<text x="920" y="853" text-anchor="middle" dominant-baseline="middle" font-family="WenQuanYi Zen Hei, Noto Sans SC, sans-serif" font-size="30px" fill="black">update_time</text>
<ellipse cx="920" cy="906" rx="72" ry="14" fill="white" stroke="black" stroke-width="2.0"/>
<text x="920" y="906" text-anchor="middle" dominant-baseline="middle" font-family="WenQuanYi Zen Hei, Noto Sans SC, sans-serif" font-size="30px" fill="black" text-decoration="underline">id</text>
<ellipse cx="920" cy="939" rx="72" ry="14" fill="white" stroke="black" stroke-width="1.5"/>
<text x="920" y="939" text-anchor="middle" dominant-baseline="middle" font-family="WenQuanYi Zen Hei, Noto Sans SC, sans-serif" font-size="30px" fill="black">application_id</text>
<ellipse cx="920" cy="972" rx="72" ry="14" fill="white" stroke="black" stroke-width="1.5"/>
<text x="920" y="972" text-anchor="middle" dominant-baseline="middle" font-family="WenQuanYi Zen Hei, Noto Sans SC, sans-serif" font-size="30px" fill="black">student_id</text>
<ellipse cx="920" cy="1005" rx="72" ry="14" fill="white" stroke="black" stroke-width="1.5"/>
<text x="920" y="1005" text-anchor="middle" dominant-baseline="middle" font-family="WenQuanYi Zen Hei, Noto Sans SC, sans-serif" font-size="30px" fill="black">employer_id</text>
<ellipse cx="920" cy="1038" rx="72" ry="14" fill="white" stroke="black" stroke-width="1.5"/>
<text x="920" y="1038" text-anchor="middle" dominant-baseline="middle" font-family="WenQuanYi Zen Hei, Noto Sans SC, sans-serif" font-size="30px" fill="black">job_id</text>
<ellipse cx="920" cy="1071" rx="72" ry="14" fill="white" stroke="black" stroke-width="1.5"/>
<text x="920" y="1071" text-anchor="middle" dominant-baseline="middle" font-family="WenQuanYi Zen Hei, Noto Sans SC, sans-serif" font-size="30px" fill="black">amount</text>
<ellipse cx="920" cy="1104" rx="72" ry="14" fill="white" stroke="black" stroke-width="1.5"/>
<text x="920" y="1104" text-anchor="middle" dominant-baseline="middle" font-family="WenQuanYi Zen Hei, Noto Sans SC, sans-serif" font-size="30px" fill="black">pay_status</text>
<ellipse cx="920" cy="1137" rx="72" ry="14" fill="white" stroke="black" stroke-width="1.5"/>
<text x="920" y="1137" text-anchor="middle" dominant-baseline="middle" font-family="WenQuanYi Zen Hei, Noto Sans SC, sans-serif" font-size="30px" fill="black">settlement_status</text>
<ellipse cx="920" cy="1170" rx="72" ry="14" fill="white" stroke="black" stroke-width="1.5"/>
<text x="920" y="1170" text-anchor="middle" dominant-baseline="middle" font-family="WenQuanYi Zen Hei, Noto Sans SC, sans-serif" font-size="30px" fill="black">start_date</text>
<ellipse cx="920" cy="1203" rx="72" ry="14" fill="white" stroke="black" stroke-width="1.5"/>
<text x="920" y="1203" text-anchor="middle" dominant-baseline="middle" font-family="WenQuanYi Zen Hei, Noto Sans SC, sans-serif" font-size="30px" fill="black">end_date</text>
<ellipse cx="920" cy="1236" rx="72" ry="14" fill="white" stroke="black" stroke-width="1.5"/>
<text x="920" y="1236" text-anchor="middle" dominant-baseline="middle" font-family="WenQuanYi Zen Hei, Noto Sans SC, sans-serif" font-size="30px" fill="black">create_time</text>
<ellipse cx="920" cy="1269" rx="72" ry="14" fill="white" stroke="black" stroke-width="1.5"/>
<text x="920" y="1269" text-anchor="middle" dominant-baseline="middle" font-family="WenQuanYi Zen Hei, Noto Sans SC, sans-serif" font-size="30px" fill="black">update_time</text>
<ellipse cx="320" cy="1594" rx="72" ry="14" fill="white" stroke="black" stroke-width="2.0"/>
<text x="320" y="1594" text-anchor="middle" dominant-baseline="middle" font-family="WenQuanYi Zen Hei, Noto Sans SC, sans-serif" font-size="30px" fill="black" text-decoration="underline">id</text>
<ellipse cx="320" cy="1627" rx="72" ry="14" fill="white" stroke="black" stroke-width="1.5"/>
<text x="320" y="1627" text-anchor="middle" dominant-baseline="middle" font-family="WenQuanYi Zen Hei, Noto Sans SC, sans-serif" font-size="30px" fill="black">order_id</text>
<ellipse cx="320" cy="1660" rx="72" ry="14" fill="white" stroke="black" stroke-width="1.5"/>
<text x="320" y="1660" text-anchor="middle" dominant-baseline="middle" font-family="WenQuanYi Zen Hei, Noto Sans SC, sans-serif" font-size="30px" fill="black">reviewer_id</text>
<ellipse cx="320" cy="1693" rx="72" ry="14" fill="white" stroke="black" stroke-width="1.5"/>
<text x="320" y="1693" text-anchor="middle" dominant-baseline="middle" font-family="WenQuanYi Zen Hei, Noto Sans SC, sans-serif" font-size="30px" fill="black">target_id</text>
<ellipse cx="320" cy="1726" rx="72" ry="14" fill="white" stroke="black" stroke-width="1.5"/>
<text x="320" y="1726" text-anchor="middle" dominant-baseline="middle" font-family="WenQuanYi Zen Hei, Noto Sans SC, sans-serif" font-size="30px" fill="black">rating</text>
<ellipse cx="720" cy="1610" rx="72" ry="14" fill="white" stroke="black" stroke-width="1.5"/>
<text x="720" y="1610" text-anchor="middle" dominant-baseline="middle" font-family="WenQuanYi Zen Hei, Noto Sans SC, sans-serif" font-size="30px" fill="black">comment</text>
<ellipse cx="720" cy="1644" rx="72" ry="14" fill="white" stroke="black" stroke-width="1.5"/>
<text x="720" y="1644" text-anchor="middle" dominant-baseline="middle" font-family="WenQuanYi Zen Hei, Noto Sans SC, sans-serif" font-size="30px" fill="black">type</text>
<ellipse cx="720" cy="1676" rx="72" ry="14" fill="white" stroke="black" stroke-width="1.5"/>
<text x="720" y="1676" text-anchor="middle" dominant-baseline="middle" font-family="WenQuanYi Zen Hei, Noto Sans SC, sans-serif" font-size="30px" fill="black">create_time</text>
<ellipse cx="720" cy="1710" rx="72" ry="14" fill="white" stroke="black" stroke-width="1.5"/>
<text x="720" y="1710" text-anchor="middle" dominant-baseline="middle" font-family="WenQuanYi Zen Hei, Noto Sans SC, sans-serif" font-size="30px" fill="black">update_time</text>
<rect x="225" y="134" width="170" height="46" fill="white" stroke="black" stroke-width="2.0" rx="3"/>
<text x="310" y="148" text-anchor="middle" dominant-baseline="middle" font-family="WenQuanYi Zen Hei, Noto Sans SC, sans-serif" font-size="30px" font-weight="bold" fill="black">sys_dict</text>
<text x="310" y="168" text-anchor="middle" dominant-baseline="middle" font-family="WenQuanYi Zen Hei, Noto Sans SC, sans-serif" font-size="24px" fill="black">(系统字典)</text>
<rect x="225" y="500" width="170" height="46" fill="white" stroke="black" stroke-width="2.0" rx="3"/>
<text x="310" y="515" text-anchor="middle" dominant-baseline="middle" font-family="WenQuanYi Zen Hei, Noto Sans SC, sans-serif" font-size="30px" font-weight="bold" fill="black">user_profile</text>
<text x="310" y="535" text-anchor="middle" dominant-baseline="middle" font-family="WenQuanYi Zen Hei, Noto Sans SC, sans-serif" font-size="24px" fill="black">(用户详情)</text>
<rect x="225" y="932" width="170" height="46" fill="white" stroke="black" stroke-width="2.0" rx="3"/>
<text x="310" y="948" text-anchor="middle" dominant-baseline="middle" font-family="WenQuanYi Zen Hei, Noto Sans SC, sans-serif" font-size="30px" font-weight="bold" fill="black">sys_user</text>
<text x="310" y="968" text-anchor="middle" dominant-baseline="middle" font-family="WenQuanYi Zen Hei, Noto Sans SC, sans-serif" font-size="24px" fill="black">(系统用户)</text>
<rect x="225" y="1250" width="170" height="46" fill="white" stroke="black" stroke-width="2.0" rx="3"/>
<text x="310" y="1264" text-anchor="middle" dominant-baseline="middle" font-family="WenQuanYi Zen Hei, Noto Sans SC, sans-serif" font-size="30px" font-weight="bold" fill="black">application</text>
<text x="310" y="1284" text-anchor="middle" dominant-baseline="middle" font-family="WenQuanYi Zen Hei, Noto Sans SC, sans-serif" font-size="24px" fill="black">(报名申请)</text>
<rect x="645" y="117" width="170" height="46" fill="white" stroke="black" stroke-width="2.0" rx="3"/>
<text x="730" y="132" text-anchor="middle" dominant-baseline="middle" font-family="WenQuanYi Zen Hei, Noto Sans SC, sans-serif" font-size="30px" font-weight="bold" fill="black">job_category</text>
<text x="730" y="152" text-anchor="middle" dominant-baseline="middle" font-family="WenQuanYi Zen Hei, Noto Sans SC, sans-serif" font-size="24px" fill="black">(岗位分类)</text>
<rect x="645" y="533" width="170" height="46" fill="white" stroke="black" stroke-width="2.0" rx="3"/>
<text x="730" y="548" text-anchor="middle" dominant-baseline="middle" font-family="WenQuanYi Zen Hei, Noto Sans SC, sans-serif" font-size="30px" font-weight="bold" fill="black">job_post</text>
<text x="730" y="568" text-anchor="middle" dominant-baseline="middle" font-family="WenQuanYi Zen Hei, Noto Sans SC, sans-serif" font-size="24px" fill="black">(岗位发布)</text>
<rect x="645" y="1064" width="170" height="46" fill="white" stroke="black" stroke-width="2.0" rx="3"/>
<text x="730" y="1080" text-anchor="middle" dominant-baseline="middle" font-family="WenQuanYi Zen Hei, Noto Sans SC, sans-serif" font-size="30px" font-weight="bold" fill="black">order_record</text>
<text x="730" y="1100" text-anchor="middle" dominant-baseline="middle" font-family="WenQuanYi Zen Hei, Noto Sans SC, sans-serif" font-size="24px" fill="black">(订单记录)</text>
<rect x="435" y="1637" width="170" height="46" fill="white" stroke="black" stroke-width="2.0" rx="3"/>
<text x="520" y="1652" text-anchor="middle" dominant-baseline="middle" font-family="WenQuanYi Zen Hei, Noto Sans SC, sans-serif" font-size="30px" font-weight="bold" fill="black">review</text>
<text x="520" y="1672" text-anchor="middle" dominant-baseline="middle" font-family="WenQuanYi Zen Hei, Noto Sans SC, sans-serif" font-size="24px" fill="black">(评价)</text>
<polygon points="520,711 548,739 520,767 492,739" fill="white" stroke="black" stroke-width="1.5"/>
<text x="520" y="739" text-anchor="middle" dominant-baseline="middle" font-family="WenQuanYi Zen Hei, Noto Sans SC, sans-serif" font-size="20px" fill="black">拥有</text>
<polygon points="520,791 548,819 520,847 492,819" fill="white" stroke="black" stroke-width="1.5"/>
<text x="520" y="819" text-anchor="middle" dominant-baseline="middle" font-family="WenQuanYi Zen Hei, Noto Sans SC, sans-serif" font-size="20px" fill="black">发布</text>
<polygon points="520,320 548,348 520,376 492,348" fill="white" stroke="black" stroke-width="1.5"/>
<text x="520" y="348" text-anchor="middle" dominant-baseline="middle" font-family="WenQuanYi Zen Hei, Noto Sans SC, sans-serif" font-size="20px" fill="black">属于</text>
<polygon points="520,1086 548,1114 520,1142 492,1114" fill="white" stroke="black" stroke-width="1.5"/>
<text x="520" y="1114" text-anchor="middle" dominant-baseline="middle" font-family="WenQuanYi Zen Hei, Noto Sans SC, sans-serif" font-size="20px" fill="black">提交</text>
<polygon points="520,886 548,914 520,942 492,914" fill="white" stroke="black" stroke-width="1.5"/>
<text x="520" y="914" text-anchor="middle" dominant-baseline="middle" font-family="WenQuanYi Zen Hei, Noto Sans SC, sans-serif" font-size="20px" fill="black">收到</text>
<polygon points="520,1166 548,1194 520,1222 492,1194" fill="white" stroke="black" stroke-width="1.5"/>
<text x="520" y="1194" text-anchor="middle" dominant-baseline="middle" font-family="WenQuanYi Zen Hei, Noto Sans SC, sans-serif" font-size="20px" fill="black">生成</text>
<polygon points="520,994 548,1022 520,1050 492,1022" fill="white" stroke="black" stroke-width="1.5"/>
<text x="520" y="1022" text-anchor="middle" dominant-baseline="middle" font-family="WenQuanYi Zen Hei, Noto Sans SC, sans-serif" font-size="16px" fill="black">学生下单</text>
<polygon points="520,1246 548,1274 520,1302 492,1274" fill="white" stroke="black" stroke-width="1.5"/>
<text x="520" y="1274" text-anchor="middle" dominant-baseline="middle" font-family="WenQuanYi Zen Hei, Noto Sans SC, sans-serif" font-size="16px" fill="black">雇主接单</text>
<polygon points="520,1326 548,1354 520,1382 492,1354" fill="white" stroke="black" stroke-width="1.5"/>
<text x="520" y="1354" text-anchor="middle" dominant-baseline="middle" font-family="WenQuanYi Zen Hei, Noto Sans SC, sans-serif" font-size="20px" fill="black">关联</text>
<polygon points="520,1406 548,1434 520,1462 492,1434" fill="white" stroke="black" stroke-width="1.5"/>
<text x="520" y="1434" text-anchor="middle" dominant-baseline="middle" font-family="WenQuanYi Zen Hei, Noto Sans SC, sans-serif" font-size="16px" fill="black">评价人</text>
<polygon points="520,1486 548,1514 520,1542 492,1514" fill="white" stroke="black" stroke-width="1.5"/>
<text x="520" y="1514" text-anchor="middle" dominant-baseline="middle" font-family="WenQuanYi Zen Hei, Noto Sans SC, sans-serif" font-size="16px" fill="black">被评价人</text>
<polygon points="520,1566 548,1594 520,1622 492,1594" fill="white" stroke="black" stroke-width="1.5"/>
<text x="520" y="1594" text-anchor="middle" dominant-baseline="middle" font-family="WenQuanYi Zen Hei, Noto Sans SC, sans-serif" font-size="20px" fill="black">产生</text>
<polygon points="730,41 758,69 730,97 702,69" fill="white" stroke="black" stroke-width="1.5"/>
<text x="730" y="69" text-anchor="middle" dominant-baseline="middle" font-family="WenQuanYi Zen Hei, Noto Sans SC, sans-serif" font-size="20px" fill="black">父子</text>
<polygon points="310,58 338,86 310,114 282,86" fill="white" stroke="black" stroke-width="1.5"/>
<text x="310" y="86" text-anchor="middle" dominant-baseline="middle" font-family="WenQuanYi Zen Hei, Noto Sans SC, sans-serif" font-size="20px" fill="black">字典</text>
<text x="476" y="725" text-anchor="middle" dominant-baseline="middle" font-family="WenQuanYi Zen Hei, Noto Sans SC, sans-serif" font-size="18px" font-weight="bold" fill="black">1</text>
<text x="476" y="753" text-anchor="middle" dominant-baseline="middle" font-family="WenQuanYi Zen Hei, Noto Sans SC, sans-serif" font-size="18px" font-weight="bold" fill="black">n</text>
<text x="476" y="809" text-anchor="middle" dominant-baseline="middle" font-family="WenQuanYi Zen Hei, Noto Sans SC, sans-serif" font-size="18px" font-weight="bold" fill="black">1</text>
<text x="564" y="829" text-anchor="middle" dominant-baseline="middle" font-family="WenQuanYi Zen Hei, Noto Sans SC, sans-serif" font-size="18px" font-weight="bold" fill="black">n</text>
<text x="564" y="334" text-anchor="middle" dominant-baseline="middle" font-family="WenQuanYi Zen Hei, Noto Sans SC, sans-serif" font-size="18px" font-weight="bold" fill="black">1</text>
<text x="564" y="362" text-anchor="middle" dominant-baseline="middle" font-family="WenQuanYi Zen Hei, Noto Sans SC, sans-serif" font-size="18px" font-weight="bold" fill="black">n</text>
<text x="476" y="1100" text-anchor="middle" dominant-baseline="middle" font-family="WenQuanYi Zen Hei, Noto Sans SC, sans-serif" font-size="18px" font-weight="bold" fill="black">1</text>
<text x="476" y="1128" text-anchor="middle" dominant-baseline="middle" font-family="WenQuanYi Zen Hei, Noto Sans SC, sans-serif" font-size="18px" font-weight="bold" fill="black">n</text>
<text x="564" y="904" text-anchor="middle" dominant-baseline="middle" font-family="WenQuanYi Zen Hei, Noto Sans SC, sans-serif" font-size="18px" font-weight="bold" fill="black">1</text>
<text x="476" y="924" text-anchor="middle" dominant-baseline="middle" font-family="WenQuanYi Zen Hei, Noto Sans SC, sans-serif" font-size="18px" font-weight="bold" fill="black">n</text>
<text x="476" y="1184" text-anchor="middle" dominant-baseline="middle" font-family="WenQuanYi Zen Hei, Noto Sans SC, sans-serif" font-size="18px" font-weight="bold" fill="black">1</text>
<text x="564" y="1204" text-anchor="middle" dominant-baseline="middle" font-family="WenQuanYi Zen Hei, Noto Sans SC, sans-serif" font-size="18px" font-weight="bold" fill="black">1</text>
<text x="476" y="1012" text-anchor="middle" dominant-baseline="middle" font-family="WenQuanYi Zen Hei, Noto Sans SC, sans-serif" font-size="18px" font-weight="bold" fill="black">1</text>
<text x="564" y="1032" text-anchor="middle" dominant-baseline="middle" font-family="WenQuanYi Zen Hei, Noto Sans SC, sans-serif" font-size="18px" font-weight="bold" fill="black">n</text>
<text x="476" y="1264" text-anchor="middle" dominant-baseline="middle" font-family="WenQuanYi Zen Hei, Noto Sans SC, sans-serif" font-size="18px" font-weight="bold" fill="black">1</text>
<text x="564" y="1284" text-anchor="middle" dominant-baseline="middle" font-family="WenQuanYi Zen Hei, Noto Sans SC, sans-serif" font-size="18px" font-weight="bold" fill="black">n</text>
<text x="564" y="1340" text-anchor="middle" dominant-baseline="middle" font-family="WenQuanYi Zen Hei, Noto Sans SC, sans-serif" font-size="18px" font-weight="bold" fill="black">1</text>
<text x="564" y="1368" text-anchor="middle" dominant-baseline="middle" font-family="WenQuanYi Zen Hei, Noto Sans SC, sans-serif" font-size="18px" font-weight="bold" fill="black">n</text>
<text x="476" y="1424" text-anchor="middle" dominant-baseline="middle" font-family="WenQuanYi Zen Hei, Noto Sans SC, sans-serif" font-size="18px" font-weight="bold" fill="black">1</text>
<text x="564" y="1444" text-anchor="middle" dominant-baseline="middle" font-family="WenQuanYi Zen Hei, Noto Sans SC, sans-serif" font-size="18px" font-weight="bold" fill="black">n</text>
<text x="476" y="1504" text-anchor="middle" dominant-baseline="middle" font-family="WenQuanYi Zen Hei, Noto Sans SC, sans-serif" font-size="18px" font-weight="bold" fill="black">1</text>
<text x="564" y="1524" text-anchor="middle" dominant-baseline="middle" font-family="WenQuanYi Zen Hei, Noto Sans SC, sans-serif" font-size="18px" font-weight="bold" fill="black">n</text>
<text x="564" y="1584" text-anchor="middle" dominant-baseline="middle" font-family="WenQuanYi Zen Hei, Noto Sans SC, sans-serif" font-size="18px" font-weight="bold" fill="black">1</text>
<text x="476" y="1604" text-anchor="middle" dominant-baseline="middle" font-family="WenQuanYi Zen Hei, Noto Sans SC, sans-serif" font-size="18px" font-weight="bold" fill="black">n</text>
<text x="744" y="107" text-anchor="middle" dominant-baseline="middle" font-family="WenQuanYi Zen Hei, Noto Sans SC, sans-serif" font-size="18px" font-weight="bold" fill="black">1</text>
<text x="607" y="134" text-anchor="middle" dominant-baseline="middle" font-family="WenQuanYi Zen Hei, Noto Sans SC, sans-serif" font-size="18px" font-weight="bold" fill="black">n</text>
<text x="324" y="124" text-anchor="middle" dominant-baseline="middle" font-family="WenQuanYi Zen Hei, Noto Sans SC, sans-serif" font-size="18px" font-weight="bold" fill="black">1</text>
<text x="187" y="150" text-anchor="middle" dominant-baseline="middle" font-family="WenQuanYi Zen Hei, Noto Sans SC, sans-serif" font-size="18px" font-weight="bold" fill="black">n</text>
</svg>